<svg width="227" height="96" viewBox="0 0 227 96" fill="none" xmlns="http://www.w3.org/2000/svg">
<g clip-path="url(#clip0_852_681)">
<g filter="url(#filter0_d_852_681)">
<mask id="path-1-outside-1_852_681" maskUnits="userSpaceOnUse" x="74" y="24" width="135" height="70" fill="black">
<rect fill="white" x="74" y="24" width="135" height="70"/>
<path d="M74.9183 52V28.2H80.4263V47.512H92.3603V52H74.9183ZM96.797 52V33.708H102.101V52H96.797ZM99.449 31.158C98.4744 31.158 97.681 30.8747 97.069 30.308C96.457 29.7413 96.151 29.0387 96.151 28.2C96.151 27.3613 96.457 26.6587 97.069 26.092C97.681 25.5253 98.4744 25.242 99.449 25.242C100.424 25.242 101.217 25.514 101.829 26.058C102.441 26.5793 102.747 27.2593 102.747 28.098C102.747 28.982 102.441 29.7187 101.829 30.308C101.24 30.8747 100.446 31.158 99.449 31.158ZM119.536 52.272C117.926 52.272 116.544 51.932 115.388 51.252C114.232 50.572 113.348 49.5407 112.736 48.158C112.124 46.7527 111.818 44.9847 111.818 42.854C111.818 40.7007 112.135 38.9327 112.77 37.55C113.427 36.1673 114.334 35.136 115.49 34.456C116.646 33.776 117.994 33.436 119.536 33.436C121.258 33.436 122.8 33.8213 124.16 34.592C125.542 35.3627 126.63 36.4507 127.424 37.856C128.24 39.2613 128.648 40.9273 128.648 42.854C128.648 44.758 128.24 46.4127 127.424 47.818C126.63 49.2233 125.542 50.3227 124.16 51.116C122.8 51.8867 121.258 52.272 119.536 52.272ZM108.724 52V26.772H114.028V37.414L113.688 42.82L113.79 48.26V52H108.724ZM118.618 47.92C119.502 47.92 120.284 47.716 120.964 47.308C121.666 46.9 122.222 46.322 122.63 45.574C123.06 44.8033 123.276 43.8967 123.276 42.854C123.276 41.7887 123.06 40.882 122.63 40.134C122.222 39.386 121.666 38.808 120.964 38.4C120.284 37.992 119.502 37.788 118.618 37.788C117.734 37.788 116.94 37.992 116.238 38.4C115.535 38.808 114.98 39.386 114.572 40.134C114.164 40.882 113.96 41.7887 113.96 42.854C113.96 43.8967 114.164 44.8033 114.572 45.574C114.98 46.322 115.535 46.9 116.238 47.308C116.94 47.716 117.734 47.92 118.618 47.92ZM142.976 52.272C140.891 52.272 139.055 51.864 137.468 51.048C135.904 50.232 134.692 49.1213 133.83 47.716C132.969 46.288 132.538 44.6673 132.538 42.854C132.538 41.018 132.958 39.3973 133.796 37.992C134.658 36.564 135.825 35.4533 137.298 34.66C138.772 33.844 140.438 33.436 142.296 33.436C144.087 33.436 145.696 33.8213 147.124 34.592C148.575 35.34 149.72 36.428 150.558 37.856C151.397 39.2613 151.816 40.95 151.816 42.922C151.816 43.126 151.805 43.364 151.782 43.636C151.76 43.8853 151.737 44.1233 151.714 44.35H136.856V41.256H148.926L146.886 42.174C146.886 41.222 146.694 40.3947 146.308 39.692C145.923 38.9893 145.39 38.4453 144.71 38.06C144.03 37.652 143.237 37.448 142.33 37.448C141.424 37.448 140.619 37.652 139.916 38.06C139.236 38.4453 138.704 39.0007 138.318 39.726C137.933 40.4287 137.74 41.2673 137.74 42.242V43.058C137.74 44.0553 137.956 44.9393 138.386 45.71C138.84 46.458 139.463 47.036 140.256 47.444C141.072 47.8293 142.024 48.022 143.112 48.022C144.087 48.022 144.937 47.8747 145.662 47.58C146.41 47.2853 147.09 46.8433 147.702 46.254L150.524 49.314C149.686 50.266 148.632 51.0027 147.362 51.524C146.093 52.0227 144.631 52.272 142.976 52.272ZM157.047 52V33.708H162.113V38.876L161.399 37.38C161.943 36.088 162.816 35.1133 164.017 34.456C165.219 33.776 166.681 33.436 168.403 33.436V38.332C168.177 38.3093 167.973 38.298 167.791 38.298C167.61 38.2753 167.417 38.264 167.213 38.264C165.763 38.264 164.584 38.6833 163.677 39.522C162.793 40.338 162.351 41.6187 162.351 43.364V52H157.047ZM181.368 52.272C179.215 52.272 177.537 51.728 176.336 50.64C175.135 49.5293 174.534 47.886 174.534 45.71V29.662H179.838V45.642C179.838 46.4127 180.042 47.0133 180.45 47.444C180.858 47.852 181.413 48.056 182.116 48.056C182.955 48.056 183.669 47.8293 184.258 47.376L185.686 51.116C185.142 51.5013 184.485 51.796 183.714 52C182.966 52.1813 182.184 52.272 181.368 52.272ZM171.712 38.196V34.116H184.394V38.196H171.712ZM192.343 58.868C191.391 58.868 190.451 58.7207 189.521 58.426C188.592 58.1313 187.833 57.7233 187.243 57.202L189.181 53.428C189.589 53.7907 190.054 54.074 190.575 54.278C191.119 54.482 191.652 54.584 192.173 54.584C192.921 54.584 193.511 54.4027 193.941 54.04C194.395 53.7 194.803 53.122 195.165 52.306L196.117 50.062L196.525 49.484L203.087 33.708H208.187L199.925 53.122C199.336 54.5953 198.656 55.7513 197.885 56.59C197.137 57.4287 196.299 58.018 195.369 58.358C194.463 58.698 193.454 58.868 192.343 58.868ZM195.471 52.714L187.311 33.708H192.785L199.109 49.008L195.471 52.714ZM86.3441 93.408C84.4401 93.408 82.6155 93.1587 80.8701 92.66C79.1248 92.1387 77.7195 91.47 76.6541 90.654L78.5241 86.506C79.5441 87.2313 80.7455 87.832 82.1281 88.308C83.5335 88.7613 84.9501 88.988 86.3781 88.988C87.4661 88.988 88.3388 88.886 88.9961 88.682C89.6761 88.4553 90.1748 88.1493 90.4921 87.764C90.8095 87.3787 90.9681 86.9367 90.9681 86.438C90.9681 85.8033 90.7188 85.3047 90.2201 84.942C89.7215 84.5567 89.0641 84.2507 88.2481 84.024C87.4321 83.7747 86.5255 83.548 85.5281 83.344C84.5535 83.1173 83.5675 82.8453 82.5701 82.528C81.5955 82.2107 80.7001 81.8027 79.8841 81.304C79.0681 80.8053 78.3995 80.148 77.8781 79.332C77.3795 78.516 77.1301 77.4733 77.1301 76.204C77.1301 74.844 77.4928 73.6087 78.2181 72.498C78.9661 71.3647 80.0768 70.4693 81.5501 69.812C83.0461 69.132 84.9161 68.792 87.1601 68.792C88.6561 68.792 90.1295 68.9733 91.5801 69.336C93.0308 69.676 94.3115 70.1973 95.4221 70.9L93.7221 75.082C92.6115 74.4473 91.5008 73.9827 90.3901 73.688C89.2795 73.3707 88.1915 73.212 87.1261 73.212C86.0608 73.212 85.1881 73.3367 84.5081 73.586C83.8281 73.8353 83.3408 74.164 83.0461 74.572C82.7515 74.9573 82.6041 75.4107 82.6041 75.932C82.6041 76.544 82.8535 77.0427 83.3521 77.428C83.8508 77.7907 84.5081 78.0853 85.3241 78.312C86.1401 78.5387 87.0355 78.7653 88.0101 78.992C89.0075 79.2187 89.9935 79.4793 90.9681 79.774C91.9655 80.0687 92.8721 80.4653 93.6881 80.964C94.5041 81.4627 95.1615 82.12 95.6601 82.936C96.1815 83.752 96.4421 84.7833 96.4421 86.03C96.4421 87.3673 96.0681 88.5913 95.3201 89.702C94.5721 90.8127 93.4501 91.708 91.9541 92.388C90.4808 93.068 88.6108 93.408 86.3441 93.408ZM110.372 93.272C108.4 93.272 106.643 92.8753 105.102 92.082C103.56 91.266 102.348 90.144 101.464 88.716C100.602 87.288 100.172 85.6673 100.172 83.854C100.172 82.018 100.602 80.3973 101.464 78.992C102.348 77.564 103.56 76.4533 105.102 75.66C106.643 74.844 108.4 74.436 110.372 74.436C112.298 74.436 113.976 74.844 115.404 75.66C116.832 76.4533 117.886 77.598 118.566 79.094L114.452 81.304C113.976 80.4427 113.375 79.808 112.65 79.4C111.947 78.992 111.176 78.788 110.338 78.788C109.431 78.788 108.615 78.992 107.89 79.4C107.164 79.808 106.586 80.386 106.156 81.134C105.748 81.882 105.544 82.7887 105.544 83.854C105.544 84.9193 105.748 85.826 106.156 86.574C106.586 87.322 107.164 87.9 107.89 88.308C108.615 88.716 109.431 88.92 110.338 88.92C111.176 88.92 111.947 88.7273 112.65 88.342C113.375 87.934 113.976 87.288 114.452 86.404L118.566 88.648C117.886 90.1213 116.832 91.266 115.404 92.082C113.976 92.8753 112.298 93.272 110.372 93.272ZM134.338 74.436C135.789 74.436 137.081 74.7307 138.214 75.32C139.37 75.8867 140.277 76.7707 140.934 77.972C141.591 79.1507 141.92 80.6693 141.92 82.528V93H136.616V83.344C136.616 81.8707 136.287 80.7827 135.63 80.08C134.995 79.3773 134.089 79.026 132.91 79.026C132.071 79.026 131.312 79.2073 130.632 79.57C129.975 79.91 129.453 80.4427 129.068 81.168C128.705 81.8933 128.524 82.8227 128.524 83.956V93H123.22V67.772H128.524V79.774L127.334 78.244C127.991 77.02 128.932 76.0793 130.156 75.422C131.38 74.7647 132.774 74.436 134.338 74.436ZM157.265 93.272C155.315 93.272 153.581 92.864 152.063 92.048C150.567 91.232 149.377 90.1213 148.493 88.716C147.631 87.288 147.201 85.6673 147.201 83.854C147.201 82.018 147.631 80.3973 148.493 78.992C149.377 77.564 150.567 76.4533 152.063 75.66C153.581 74.844 155.315 74.436 157.265 74.436C159.191 74.436 160.914 74.844 162.433 75.66C163.951 76.4533 165.141 77.5527 166.003 78.958C166.864 80.3633 167.295 81.9953 167.295 83.854C167.295 85.6673 166.864 87.288 166.003 88.716C165.141 90.1213 163.951 91.232 162.433 92.048C160.914 92.864 159.191 93.272 157.265 93.272ZM157.265 88.92C158.149 88.92 158.942 88.716 159.645 88.308C160.347 87.9 160.903 87.322 161.311 86.574C161.719 85.8033 161.923 84.8967 161.923 83.854C161.923 82.7887 161.719 81.882 161.311 81.134C160.903 80.386 160.347 79.808 159.645 79.4C158.942 78.992 158.149 78.788 157.265 78.788C156.381 78.788 155.587 78.992 154.885 79.4C154.182 79.808 153.615 80.386 153.185 81.134C152.777 81.882 152.573 82.7887 152.573 83.854C152.573 84.8967 152.777 85.8033 153.185 86.574C153.615 87.322 154.182 87.9 154.885 88.308C155.587 88.716 156.381 88.92 157.265 88.92ZM181.244 93.272C179.295 93.272 177.561 92.864 176.042 92.048C174.546 91.232 173.356 90.1213 172.472 88.716C171.611 87.288 171.18 85.6673 171.18 83.854C171.18 82.018 171.611 80.3973 172.472 78.992C173.356 77.564 174.546 76.4533 176.042 75.66C177.561 74.844 179.295 74.436 181.244 74.436C183.171 74.436 184.893 74.844 186.412 75.66C187.931 76.4533 189.121 77.5527 189.982 78.958C190.843 80.3633 191.274 81.9953 191.274 83.854C191.274 85.6673 190.843 87.288 189.982 88.716C189.121 90.1213 187.931 91.232 186.412 92.048C184.893 92.864 183.171 93.272 181.244 93.272ZM181.244 88.92C182.128 88.92 182.921 88.716 183.624 88.308C184.327 87.9 184.882 87.322 185.29 86.574C185.698 85.8033 185.902 84.8967 185.902 83.854C185.902 82.7887 185.698 81.882 185.29 81.134C184.882 80.386 184.327 79.808 183.624 79.4C182.921 78.992 182.128 78.788 181.244 78.788C180.36 78.788 179.567 78.992 178.864 79.4C178.161 79.808 177.595 80.386 177.164 81.134C176.756 81.882 176.552 82.7887 176.552 83.854C176.552 84.8967 176.756 85.8033 177.164 86.574C177.595 87.322 178.161 87.9 178.864 88.308C179.567 88.716 180.36 88.92 181.244 88.92ZM196.519 93V67.772H201.823V93H196.519Z"/>
</mask>
<path d="M74.9183 52V28.2H80.4263V47.512H92.3603V52H74.9183ZM96.797 52V33.708H102.101V52H96.797ZM99.449 31.158C98.4744 31.158 97.681 30.8747 97.069 30.308C96.457 29.7413 96.151 29.0387 96.151 28.2C96.151 27.3613 96.457 26.6587 97.069 26.092C97.681 25.5253 98.4744 25.242 99.449 25.242C100.424 25.242 101.217 25.514 101.829 26.058C102.441 26.5793 102.747 27.2593 102.747 28.098C102.747 28.982 102.441 29.7187 101.829 30.308C101.24 30.8747 100.446 31.158 99.449 31.158ZM119.536 52.272C117.926 52.272 116.544 51.932 115.388 51.252C114.232 50.572 113.348 49.5407 112.736 48.158C112.124 46.7527 111.818 44.9847 111.818 42.854C111.818 40.7007 112.135 38.9327 112.77 37.55C113.427 36.1673 114.334 35.136 115.49 34.456C116.646 33.776 117.994 33.436 119.536 33.436C121.258 33.436 122.8 33.8213 124.16 34.592C125.542 35.3627 126.63 36.4507 127.424 37.856C128.24 39.2613 128.648 40.9273 128.648 42.854C128.648 44.758 128.24 46.4127 127.424 47.818C126.63 49.2233 125.542 50.3227 124.16 51.116C122.8 51.8867 121.258 52.272 119.536 52.272ZM108.724 52V26.772H114.028V37.414L113.688 42.82L113.79 48.26V52H108.724ZM118.618 47.92C119.502 47.92 120.284 47.716 120.964 47.308C121.666 46.9 122.222 46.322 122.63 45.574C123.06 44.8033 123.276 43.8967 123.276 42.854C123.276 41.7887 123.06 40.882 122.63 40.134C122.222 39.386 121.666 38.808 120.964 38.4C120.284 37.992 119.502 37.788 118.618 37.788C117.734 37.788 116.94 37.992 116.238 38.4C115.535 38.808 114.98 39.386 114.572 40.134C114.164 40.882 113.96 41.7887 113.96 42.854C113.96 43.8967 114.164 44.8033 114.572 45.574C114.98 46.322 115.535 46.9 116.238 47.308C116.94 47.716 117.734 47.92 118.618 47.92ZM142.976 52.272C140.891 52.272 139.055 51.864 137.468 51.048C135.904 50.232 134.692 49.1213 133.83 47.716C132.969 46.288 132.538 44.6673 132.538 42.854C132.538 41.018 132.958 39.3973 133.796 37.992C134.658 36.564 135.825 35.4533 137.298 34.66C138.772 33.844 140.438 33.436 142.296 33.436C144.087 33.436 145.696 33.8213 147.124 34.592C148.575 35.34 149.72 36.428 150.558 37.856C151.397 39.2613 151.816 40.95 151.816 42.922C151.816 43.126 151.805 43.364 151.782 43.636C151.76 43.8853 151.737 44.1233 151.714 44.35H136.856V41.256H148.926L146.886 42.174C146.886 41.222 146.694 40.3947 146.308 39.692C145.923 38.9893 145.39 38.4453 144.71 38.06C144.03 37.652 143.237 37.448 142.33 37.448C141.424 37.448 140.619 37.652 139.916 38.06C139.236 38.4453 138.704 39.0007 138.318 39.726C137.933 40.4287 137.74 41.2673 137.74 42.242V43.058C137.74 44.0553 137.956 44.9393 138.386 45.71C138.84 46.458 139.463 47.036 140.256 47.444C141.072 47.8293 142.024 48.022 143.112 48.022C144.087 48.022 144.937 47.8747 145.662 47.58C146.41 47.2853 147.09 46.8433 147.702 46.254L150.524 49.314C149.686 50.266 148.632 51.0027 147.362 51.524C146.093 52.0227 144.631 52.272 142.976 52.272ZM157.047 52V33.708H162.113V38.876L161.399 37.38C161.943 36.088 162.816 35.1133 164.017 34.456C165.219 33.776 166.681 33.436 168.403 33.436V38.332C168.177 38.3093 167.973 38.298 167.791 38.298C167.61 38.2753 167.417 38.264 167.213 38.264C165.763 38.264 164.584 38.6833 163.677 39.522C162.793 40.338 162.351 41.6187 162.351 43.364V52H157.047ZM181.368 52.272C179.215 52.272 177.537 51.728 176.336 50.64C175.135 49.5293 174.534 47.886 174.534 45.71V29.662H179.838V45.642C179.838 46.4127 180.042 47.0133 180.45 47.444C180.858 47.852 181.413 48.056 182.116 48.056C182.955 48.056 183.669 47.8293 184.258 47.376L185.686 51.116C185.142 51.5013 184.485 51.796 183.714 52C182.966 52.1813 182.184 52.272 181.368 52.272ZM171.712 38.196V34.116H184.394V38.196H171.712ZM192.343 58.868C191.391 58.868 190.451 58.7207 189.521 58.426C188.592 58.1313 187.833 57.7233 187.243 57.202L189.181 53.428C189.589 53.7907 190.054 54.074 190.575 54.278C191.119 54.482 191.652 54.584 192.173 54.584C192.921 54.584 193.511 54.4027 193.941 54.04C194.395 53.7 194.803 53.122 195.165 52.306L196.117 50.062L196.525 49.484L203.087 33.708H208.187L199.925 53.122C199.336 54.5953 198.656 55.7513 197.885 56.59C197.137 57.4287 196.299 58.018 195.369 58.358C194.463 58.698 193.454 58.868 192.343 58.868ZM195.471 52.714L187.311 33.708H192.785L199.109 49.008L195.471 52.714ZM86.3441 93.408C84.4401 93.408 82.6155 93.1587 80.8701 92.66C79.1248 92.1387 77.7195 91.47 76.6541 90.654L78.5241 86.506C79.5441 87.2313 80.7455 87.832 82.1281 88.308C83.5335 88.7613 84.9501 88.988 86.3781 88.988C87.4661 88.988 88.3388 88.886 88.9961 88.682C89.6761 88.4553 90.1748 88.1493 90.4921 87.764C90.8095 87.3787 90.9681 86.9367 90.9681 86.438C90.9681 85.8033 90.7188 85.3047 90.2201 84.942C89.7215 84.5567 89.0641 84.2507 88.2481 84.024C87.4321 83.7747 86.5255 83.548 85.5281 83.344C84.5535 83.1173 83.5675 82.8453 82.5701 82.528C81.5955 82.2107 80.7001 81.8027 79.8841 81.304C79.0681 80.8053 78.3995 80.148 77.8781 79.332C77.3795 78.516 77.1301 77.4733 77.1301 76.204C77.1301 74.844 77.4928 73.6087 78.2181 72.498C78.9661 71.3647 80.0768 70.4693 81.5501 69.812C83.0461 69.132 84.9161 68.792 87.1601 68.792C88.6561 68.792 90.1295 68.9733 91.5801 69.336C93.0308 69.676 94.3115 70.1973 95.4221 70.9L93.7221 75.082C92.6115 74.4473 91.5008 73.9827 90.3901 73.688C89.2795 73.3707 88.1915 73.212 87.1261 73.212C86.0608 73.212 85.1881 73.3367 84.5081 73.586C83.8281 73.8353 83.3408 74.164 83.0461 74.572C82.7515 74.9573 82.6041 75.4107 82.6041 75.932C82.6041 76.544 82.8535 77.0427 83.3521 77.428C83.8508 77.7907 84.5081 78.0853 85.3241 78.312C86.1401 78.5387 87.0355 78.7653 88.0101 78.992C89.0075 79.2187 89.9935 79.4793 90.9681 79.774C91.9655 80.0687 92.8721 80.4653 93.6881 80.964C94.5041 81.4627 95.1615 82.12 95.6601 82.936C96.1815 83.752 96.4421 84.7833 96.4421 86.03C96.4421 87.3673 96.0681 88.5913 95.3201 89.702C94.5721 90.8127 93.4501 91.708 91.9541 92.388C90.4808 93.068 88.6108 93.408 86.3441 93.408ZM110.372 93.272C108.4 93.272 106.643 92.8753 105.102 92.082C103.56 91.266 102.348 90.144 101.464 88.716C100.602 87.288 100.172 85.6673 100.172 83.854C100.172 82.018 100.602 80.3973 101.464 78.992C102.348 77.564 103.56 76.4533 105.102 75.66C106.643 74.844 108.4 74.436 110.372 74.436C112.298 74.436 113.976 74.844 115.404 75.66C116.832 76.4533 117.886 77.598 118.566 79.094L114.452 81.304C113.976 80.4427 113.375 79.808 112.65 79.4C111.947 78.992 111.176 78.788 110.338 78.788C109.431 78.788 108.615 78.992 107.89 79.4C107.164 79.808 106.586 80.386 106.156 81.134C105.748 81.882 105.544 82.7887 105.544 83.854C105.544 84.9193 105.748 85.826 106.156 86.574C106.586 87.322 107.164 87.9 107.89 88.308C108.615 88.716 109.431 88.92 110.338 88.92C111.176 88.92 111.947 88.7273 112.65 88.342C113.375 87.934 113.976 87.288 114.452 86.404L118.566 88.648C117.886 90.1213 116.832 91.266 115.404 92.082C113.976 92.8753 112.298 93.272 110.372 93.272ZM134.338 74.436C135.789 74.436 137.081 74.7307 138.214 75.32C139.37 75.8867 140.277 76.7707 140.934 77.972C141.591 79.1507 141.92 80.6693 141.92 82.528V93H136.616V83.344C136.616 81.8707 136.287 80.7827 135.63 80.08C134.995 79.3773 134.089 79.026 132.91 79.026C132.071 79.026 131.312 79.2073 130.632 79.57C129.975 79.91 129.453 80.4427 129.068 81.168C128.705 81.8933 128.524 82.8227 128.524 83.956V93H123.22V67.772H128.524V79.774L127.334 78.244C127.991 77.02 128.932 76.0793 130.156 75.422C131.38 74.7647 132.774 74.436 134.338 74.436ZM157.265 93.272C155.315 93.272 153.581 92.864 152.063 92.048C150.567 91.232 149.377 90.1213 148.493 88.716C147.631 87.288 147.201 85.6673 147.201 83.854C147.201 82.018 147.631 80.3973 148.493 78.992C149.377 77.564 150.567 76.4533 152.063 75.66C153.581 74.844 155.315 74.436 157.265 74.436C159.191 74.436 160.914 74.844 162.433 75.66C163.951 76.4533 165.141 77.5527 166.003 78.958C166.864 80.3633 167.295 81.9953 167.295 83.854C167.295 85.6673 166.864 87.288 166.003 88.716C165.141 90.1213 163.951 91.232 162.433 92.048C160.914 92.864 159.191 93.272 157.265 93.272ZM157.265 88.92C158.149 88.92 158.942 88.716 159.645 88.308C160.347 87.9 160.903 87.322 161.311 86.574C161.719 85.8033 161.923 84.8967 161.923 83.854C161.923 82.7887 161.719 81.882 161.311 81.134C160.903 80.386 160.347 79.808 159.645 79.4C158.942 78.992 158.149 78.788 157.265 78.788C156.381 78.788 155.587 78.992 154.885 79.4C154.182 79.808 153.615 80.386 153.185 81.134C152.777 81.882 152.573 82.7887 152.573 83.854C152.573 84.8967 152.777 85.8033 153.185 86.574C153.615 87.322 154.182 87.9 154.885 88.308C155.587 88.716 156.381 88.92 157.265 88.92ZM181.244 93.272C179.295 93.272 177.561 92.864 176.042 92.048C174.546 91.232 173.356 90.1213 172.472 88.716C171.611 87.288 171.18 85.6673 171.18 83.854C171.18 82.018 171.611 80.3973 172.472 78.992C173.356 77.564 174.546 76.4533 176.042 75.66C177.561 74.844 179.295 74.436 181.244 74.436C183.171 74.436 184.893 74.844 186.412 75.66C187.931 76.4533 189.121 77.5527 189.982 78.958C190.843 80.3633 191.274 81.9953 191.274 83.854C191.274 85.6673 190.843 87.288 189.982 88.716C189.121 90.1213 187.931 91.232 186.412 92.048C184.893 92.864 183.171 93.272 181.244 93.272ZM181.244 88.92C182.128 88.92 182.921 88.716 183.624 88.308C184.327 87.9 184.882 87.322 185.29 86.574C185.698 85.8033 185.902 84.8967 185.902 83.854C185.902 82.7887 185.698 81.882 185.29 81.134C184.882 80.386 184.327 79.808 183.624 79.4C182.921 78.992 182.128 78.788 181.244 78.788C180.36 78.788 179.567 78.992 178.864 79.4C178.161 79.808 177.595 80.386 177.164 81.134C176.756 81.882 176.552 82.7887 176.552 83.854C176.552 84.8967 176.756 85.8033 177.164 86.574C177.595 87.322 178.161 87.9 178.864 88.308C179.567 88.716 180.36 88.92 181.244 88.92ZM196.519 93V67.772H201.823V93H196.519Z" fill="white"/>
<path d="M74.9183 52H74.4183V52.5H74.9183V52ZM74.9183 28.2V27.7H74.4183V28.2H74.9183ZM80.4263 28.2H80.9263V27.7H80.4263V28.2ZM80.4263 47.512H79.9263V48.012H80.4263V47.512ZM92.3603 47.512H92.8603V47.012H92.3603V47.512ZM92.3603 52V52.5H92.8603V52H92.3603ZM75.4183 52V28.2H74.4183V52H75.4183ZM74.9183 28.7H80.4263V27.7H74.9183V28.7ZM79.9263 28.2V47.512H80.9263V28.2H79.9263ZM80.4263 48.012H92.3603V47.012H80.4263V48.012ZM91.8603 47.512V52H92.8603V47.512H91.8603ZM92.3603 51.5H74.9183V52.5H92.3603V51.5ZM96.797 52H96.297V52.5H96.797V52ZM96.797 33.708V33.208H96.297V33.708H96.797ZM102.101 33.708H102.601V33.208H102.101V33.708ZM102.101 52V52.5H102.601V52H102.101ZM97.069 30.308L96.7293 30.6749L97.069 30.308ZM97.069 26.092L97.4087 26.4589L97.069 26.092ZM101.829 26.058L101.497 26.4318L101.505 26.4386L101.829 26.058ZM101.829 30.308L102.176 30.6684L102.176 30.6682L101.829 30.308ZM97.297 52V33.708H96.297V52H97.297ZM96.797 34.208H102.101V33.208H96.797V34.208ZM101.601 33.708V52H102.601V33.708H101.601ZM102.101 51.5H96.797V52.5H102.101V51.5ZM99.449 30.658C98.5777 30.658 97.9129 30.408 97.4087 29.9411L96.7293 30.6749C97.4491 31.3414 98.371 31.658 99.449 31.658V30.658ZM97.4087 29.9411C96.8996 29.4697 96.651 28.9003 96.651 28.2H95.651C95.651 29.1771 96.0145 30.013 96.7293 30.6749L97.4087 29.9411ZM96.651 28.2C96.651 27.4997 96.8996 26.9303 97.4087 26.4589L96.7293 25.7251C96.0145 26.387 95.651 27.2229 95.651 28.2H96.651ZM97.4087 26.4589C97.9129 25.992 98.5777 25.742 99.449 25.742V24.742C98.371 24.742 97.4491 25.0586 96.7293 25.7251L97.4087 26.4589ZM99.449 25.742C100.326 25.742 100.993 25.984 101.497 26.4317L102.161 25.6843C101.441 25.044 100.522 24.742 99.449 24.742V25.742ZM101.505 26.4386C102 26.8604 102.247 27.3986 102.247 28.098H103.247C103.247 27.1201 102.882 26.2983 102.153 25.6774L101.505 26.4386ZM102.247 28.098C102.247 28.8523 101.992 29.457 101.482 29.9478L102.176 30.6682C102.89 29.9804 103.247 29.1117 103.247 28.098H102.247ZM101.482 29.9476C101.006 30.4058 100.347 30.658 99.449 30.658V31.658C100.546 31.658 101.473 31.3435 102.176 30.6684L101.482 29.9476ZM115.388 51.252L115.641 50.821L115.388 51.252ZM112.736 48.158L112.277 48.3576L112.278 48.3604L112.736 48.158ZM112.77 37.55L112.318 37.3353L112.315 37.3414L112.77 37.55ZM115.49 34.456L115.236 34.025L115.49 34.456ZM124.16 34.592L123.913 35.027L123.916 35.0287L124.16 34.592ZM127.424 37.856L126.988 38.1018L126.991 38.1071L127.424 37.856ZM127.424 47.818L126.991 47.5669L126.988 47.5722L127.424 47.818ZM124.16 51.116L124.406 51.551L124.408 51.5497L124.16 51.116ZM108.724 52H108.224V52.5H108.724V52ZM108.724 26.772V26.272H108.224V26.772H108.724ZM114.028 26.772H114.528V26.272H114.028V26.772ZM114.028 37.414L114.527 37.4454L114.528 37.4297V37.414H114.028ZM113.688 42.82L113.189 42.7886L113.187 42.809L113.188 42.8294L113.688 42.82ZM113.79 48.26H114.29L114.29 48.2506L113.79 48.26ZM113.79 52V52.5H114.29V52H113.79ZM120.964 47.308L120.712 46.8756L120.706 46.8793L120.964 47.308ZM122.63 45.574L122.193 45.3301L122.191 45.3346L122.63 45.574ZM122.63 40.134L122.191 40.3735L122.196 40.3835L122.63 40.134ZM120.964 38.4L120.706 38.8288L120.713 38.8324L120.964 38.4ZM116.238 38.4L116.489 38.8324L116.238 38.4ZM114.572 40.134L115.011 40.3734L114.572 40.134ZM114.572 45.574L114.13 45.808L114.133 45.8134L114.572 45.574ZM116.238 47.308L116.489 46.8756L116.238 47.308ZM119.536 51.772C117.998 51.772 116.706 51.4476 115.641 50.821L115.134 51.683C116.381 52.4164 117.855 52.772 119.536 52.772V51.772ZM115.641 50.821C114.587 50.2007 113.768 49.2554 113.193 47.9556L112.278 48.3604C112.927 49.826 113.877 50.9433 115.134 51.683L115.641 50.821ZM113.194 47.9584C112.618 46.6355 112.318 44.941 112.318 42.854H111.318C111.318 45.0283 111.629 46.8698 112.277 48.3576L113.194 47.9584ZM112.318 42.854C112.318 40.7448 112.629 39.0545 113.224 37.7586L112.315 37.3414C111.641 38.8108 111.318 40.6565 111.318 42.854H112.318ZM113.221 37.7647C113.842 36.4591 114.685 35.5094 115.743 34.887L115.236 34.025C113.982 34.7626 113.012 35.8756 112.318 37.3353L113.221 37.7647ZM115.743 34.887C116.811 34.2586 118.07 33.936 119.536 33.936V32.936C117.919 32.936 116.48 33.2934 115.236 34.025L115.743 34.887ZM119.536 33.936C121.181 33.936 122.636 34.3032 123.913 35.027L124.406 34.157C122.963 33.3395 121.336 32.936 119.536 32.936V33.936ZM123.916 35.0287C125.217 35.7537 126.239 36.7749 126.988 38.1018L127.859 37.6102C127.021 36.1264 125.868 34.9716 124.403 34.1553L123.916 35.0287ZM126.991 38.1071C127.755 39.4231 128.148 40.9991 128.148 42.854H129.148C129.148 40.8556 128.724 39.0996 127.856 37.6049L126.991 38.1071ZM128.148 42.854C128.148 44.6851 127.756 46.2501 126.991 47.5669L127.856 48.0691C128.723 46.5753 129.148 44.8309 129.148 42.854H128.148ZM126.988 47.5722C126.238 48.9003 125.214 49.9343 123.911 50.6823L124.408 51.5497C125.87 50.711 127.022 49.5464 127.859 48.0638L126.988 47.5722ZM123.913 50.681C122.636 51.4048 121.181 51.772 119.536 51.772V52.772C121.336 52.772 122.963 52.3685 124.406 51.551L123.913 50.681ZM109.224 52V26.772H108.224V52H109.224ZM108.724 27.272H114.028V26.272H108.724V27.272ZM113.528 26.772V37.414H114.528V26.772H113.528ZM113.529 37.3826L113.189 42.7886L114.187 42.8514L114.527 37.4454L113.529 37.3826ZM113.188 42.8294L113.29 48.2694L114.29 48.2506L114.188 42.8106L113.188 42.8294ZM113.29 48.26V52H114.29V48.26H113.29ZM113.79 51.5H108.724V52.5H113.79V51.5ZM118.618 48.42C119.582 48.42 120.454 48.1966 121.221 47.7367L120.706 46.8793C120.113 47.2354 119.422 47.42 118.618 47.42V48.42ZM121.215 47.7404C122 47.2842 122.619 46.6376 123.069 45.8134L122.191 45.3346C121.824 46.0064 121.332 46.5158 120.713 46.8756L121.215 47.7404ZM123.066 45.8179C123.545 44.9602 123.776 43.9666 123.776 42.854H122.776C122.776 43.8268 122.575 44.6464 122.193 45.3301L123.066 45.8179ZM123.776 42.854C123.776 41.7214 123.546 40.7243 123.063 39.8845L122.196 40.3835C122.574 41.0397 122.776 41.8559 122.776 42.854H123.776ZM123.069 39.8946C122.619 39.0704 122 38.4238 121.215 37.9676L120.713 38.8324C121.332 39.1922 121.824 39.7016 122.191 40.3734L123.069 39.8946ZM121.221 37.9713C120.454 37.5114 119.582 37.288 118.618 37.288V38.288C119.422 38.288 120.113 38.4726 120.706 38.8287L121.221 37.9713ZM118.618 37.288C117.653 37.288 116.772 37.5115 115.987 37.9676L116.489 38.8324C117.108 38.4725 117.814 38.288 118.618 38.288V37.288ZM115.987 37.9676C115.201 38.4238 114.582 39.0704 114.133 39.8946L115.011 40.3734C115.377 39.7016 115.869 39.1922 116.489 38.8324L115.987 37.9676ZM114.133 39.8946C113.676 40.7322 113.46 41.7256 113.46 42.854H114.46C114.46 41.8517 114.651 41.0318 115.011 40.3734L114.133 39.8946ZM113.46 42.854C113.46 43.9623 113.677 44.9524 114.13 45.8079L115.013 45.3401C114.65 44.6543 114.46 43.831 114.46 42.854H113.46ZM114.133 45.8134C114.582 46.6376 115.201 47.2842 115.987 47.7404L116.489 46.8756C115.869 46.5158 115.377 46.0064 115.011 45.3346L114.133 45.8134ZM115.987 47.7404C116.772 48.1965 117.653 48.42 118.618 48.42V47.42C117.814 47.42 117.108 47.2355 116.489 46.8756L115.987 47.7404ZM137.468 51.048L137.237 51.4913L137.24 51.4926L137.468 51.048ZM133.83 47.716L133.402 47.9743L133.404 47.9773L133.83 47.716ZM133.796 37.992L133.368 37.7337L133.367 37.7358L133.796 37.992ZM137.298 34.66L137.535 35.1003L137.54 35.0974L137.298 34.66ZM147.124 34.592L146.887 35.0321L146.895 35.0364L147.124 34.592ZM150.558 37.856L150.127 38.1092L150.129 38.1122L150.558 37.856ZM151.782 43.636L152.28 43.6813L152.28 43.6775L151.782 43.636ZM151.714 44.35V44.85H152.167L152.212 44.3998L151.714 44.35ZM136.856 44.35H136.356V44.85H136.856V44.35ZM136.856 41.256V40.756H136.356V41.256H136.856ZM148.926 41.256L149.131 41.712L148.926 40.756V41.256ZM146.886 42.174H146.386V42.9473L147.091 42.63L146.886 42.174ZM146.308 39.692L145.87 39.9324V39.9324L146.308 39.692ZM144.71 38.06L144.453 38.4889L144.464 38.495L144.71 38.06ZM139.916 38.06L140.163 38.495L140.167 38.4924L139.916 38.06ZM138.318 39.726L138.757 39.9664L138.76 39.9606L138.318 39.726ZM138.386 45.71L137.95 45.9539L137.954 45.9616L137.959 45.9692L138.386 45.71ZM140.256 47.444L140.028 47.8886L140.035 47.8925L140.043 47.8961L140.256 47.444ZM145.662 47.58L145.479 47.1148L145.474 47.1168L145.662 47.58ZM147.702 46.254L148.07 45.915L147.723 45.5395L147.355 45.8938L147.702 46.254ZM150.524 49.314L150.899 49.6445L151.197 49.3063L150.892 48.975L150.524 49.314ZM147.362 51.524L147.545 51.9894L147.552 51.9865L147.362 51.524ZM142.976 51.772C140.957 51.772 139.202 51.3773 137.697 50.6034L137.24 51.4926C138.908 52.3507 140.825 52.772 142.976 52.772V51.772ZM137.699 50.6047C136.21 49.8275 135.067 48.7774 134.256 47.4547L133.404 47.9773C134.316 49.4653 135.598 50.6365 137.237 51.4913L137.699 50.6047ZM134.258 47.4578C133.448 46.1144 133.038 44.5845 133.038 42.854H132.038C132.038 44.7501 132.49 46.4616 133.402 47.9742L134.258 47.4578ZM133.038 42.854C133.038 41.097 133.439 39.567 134.226 38.2482L133.367 37.7358C132.476 39.2277 132.038 40.939 132.038 42.854H133.038ZM134.224 38.2502C135.039 36.8992 136.14 35.8513 137.535 35.1002L137.061 34.2198C135.509 35.0554 134.276 36.2288 133.368 37.7338L134.224 38.2502ZM137.54 35.0974C138.932 34.3266 140.513 33.936 142.296 33.936V32.936C140.362 32.936 138.611 33.3614 137.056 34.2226L137.54 35.0974ZM142.296 33.936C144.013 33.936 145.539 34.3047 146.887 35.032L147.362 34.152C145.853 33.338 144.161 32.936 142.296 32.936V33.936ZM146.895 35.0364C148.26 35.7404 149.336 36.7615 150.127 38.1092L150.989 37.6028C150.104 36.0945 148.889 34.9396 147.353 34.1476L146.895 35.0364ZM150.129 38.1122C150.913 39.4256 151.316 41.0217 151.316 42.922H152.316C152.316 40.8783 151.881 39.0971 150.988 37.5998L150.129 38.1122ZM151.316 42.922C151.316 43.1084 151.306 43.332 151.284 43.5945L152.28 43.6775C152.304 43.396 152.316 43.1436 152.316 42.922H151.316ZM151.284 43.5907C151.262 43.8387 151.239 44.0752 151.217 44.3002L152.212 44.3998C152.235 44.1715 152.257 43.932 152.28 43.6813L151.284 43.5907ZM151.714 43.85H136.856V44.85H151.714V43.85ZM137.356 44.35V41.256H136.356V44.35H137.356ZM136.856 41.756H148.926V40.756H136.856V41.756ZM148.721 40.8L146.681 41.718L147.091 42.63L149.131 41.712L148.721 40.8ZM147.386 42.174C147.386 41.1537 147.179 40.2406 146.747 39.4516L145.87 39.9324C146.208 40.5487 146.386 41.2902 146.386 42.174H147.386ZM146.747 39.4516C146.318 38.6697 145.72 38.0573 144.957 37.625L144.464 38.495C145.061 38.8334 145.528 39.309 145.87 39.9324L146.747 39.4516ZM144.967 37.6313C144.199 37.1703 143.314 36.948 142.33 36.948V37.948C143.159 37.948 143.861 38.1337 144.453 38.4887L144.967 37.6313ZM142.33 36.948C141.346 36.948 140.453 37.1704 139.665 37.6276L140.167 38.4924C140.785 38.1336 141.501 37.948 142.33 37.948V36.948ZM139.67 37.625C138.903 38.0597 138.304 38.6866 137.877 39.4914L138.76 39.9606C139.103 39.3148 139.57 38.831 140.163 38.495L139.67 37.625ZM137.88 39.4856C137.446 40.2763 137.24 41.2013 137.24 42.242H138.24C138.24 41.3333 138.42 40.5811 138.757 39.9664L137.88 39.4856ZM137.24 42.242V43.058H138.24V42.242H137.24ZM137.24 43.058C137.24 44.1295 137.472 45.0995 137.95 45.9539L138.823 45.4661C138.439 44.7792 138.24 43.9812 138.24 43.058H137.24ZM137.959 45.9692C138.461 46.7978 139.154 47.4393 140.028 47.8886L140.485 46.9994C139.772 46.6327 139.218 46.1182 138.814 45.4508L137.959 45.9692ZM140.043 47.8961C140.938 48.3188 141.965 48.522 143.112 48.522V47.522C142.083 47.522 141.207 47.3399 140.47 46.9919L140.043 47.8961ZM143.112 48.522C144.136 48.522 145.053 48.3673 145.85 48.0432L145.474 47.1168C144.821 47.382 144.038 47.522 143.112 47.522V48.522ZM145.845 48.0452C146.658 47.7252 147.393 47.2463 148.049 46.6142L147.355 45.8938C146.788 46.4404 146.163 46.8455 145.479 47.1148L145.845 48.0452ZM147.335 46.593L150.157 49.653L150.892 48.975L148.07 45.915L147.335 46.593ZM150.149 48.9835C149.365 49.8732 148.376 50.5669 147.172 51.0615L147.552 51.9865C148.887 51.4384 150.006 50.6588 150.899 49.6445L150.149 48.9835ZM147.179 51.0586C145.979 51.5301 144.581 51.772 142.976 51.772V52.772C144.68 52.772 146.206 52.5152 147.545 51.9894L147.179 51.0586ZM157.047 52H156.547V52.5H157.047V52ZM157.047 33.708V33.208H156.547V33.708H157.047ZM162.113 33.708H162.613V33.208H162.113V33.708ZM162.113 38.876L161.662 39.0914L162.613 38.876H162.113ZM161.399 37.38L160.939 37.186L160.852 37.3928L160.948 37.5954L161.399 37.38ZM164.017 34.456L164.257 34.8947L164.264 34.8911L164.017 34.456ZM168.403 33.436H168.903V32.936H168.403V33.436ZM168.403 38.332L168.354 38.8295L168.903 38.8845V38.332H168.403ZM167.791 38.298L167.729 38.7941L167.76 38.798H167.791V38.298ZM163.677 39.522L164.017 39.8894L164.017 39.889L163.677 39.522ZM162.351 52V52.5H162.851V52H162.351ZM157.547 52V33.708H156.547V52H157.547ZM157.047 34.208H162.113V33.208H157.047V34.208ZM161.613 33.708V38.876H162.613V33.708H161.613ZM162.565 38.6606L161.851 37.1646L160.948 37.5954L161.662 39.0914L162.565 38.6606ZM161.86 37.574C162.362 36.3835 163.158 35.4963 164.257 34.8946L163.777 34.0174C162.474 34.7303 161.525 35.7925 160.939 37.186L161.86 37.574ZM164.264 34.8911C165.373 34.263 166.746 33.936 168.403 33.936V32.936C166.616 32.936 165.064 33.289 163.771 34.0209L164.264 34.8911ZM167.903 33.436V38.332H168.903V33.436H167.903ZM168.453 37.8345C168.214 37.8106 167.993 37.798 167.791 37.798V38.798C167.953 38.798 168.14 38.8081 168.354 38.8295L168.453 37.8345ZM167.853 37.8019C167.649 37.7763 167.436 37.764 167.213 37.764V38.764C167.399 38.764 167.571 38.7743 167.729 38.7941L167.853 37.8019ZM167.213 37.764C165.66 37.764 164.353 38.2161 163.338 39.1549L164.017 39.889C164.815 39.1505 165.865 38.764 167.213 38.764V37.764ZM163.338 39.1546C162.313 40.1012 161.851 41.5429 161.851 43.364H162.851C162.851 41.6944 163.274 40.5748 164.017 39.8894L163.338 39.1546ZM161.851 43.364V52H162.851V43.364H161.851ZM162.351 51.5H157.047V52.5H162.351V51.5ZM176.336 50.64L175.997 51.0072L176 51.0106L176.336 50.64ZM174.534 29.662V29.162H174.034V29.662H174.534ZM179.838 29.662H180.338V29.162H179.838V29.662ZM180.45 47.444L180.087 47.788L180.096 47.7976L180.45 47.444ZM184.258 47.376L184.725 47.1976L184.486 46.5702L183.953 46.9797L184.258 47.376ZM185.686 51.116L185.975 51.524L186.291 51.2999L186.153 50.9376L185.686 51.116ZM183.714 52L183.832 52.486L183.842 52.4834L183.714 52ZM171.712 38.196H171.212V38.696H171.712V38.196ZM171.712 34.116V33.616H171.212V34.116H171.712ZM184.394 34.116H184.894V33.616H184.394V34.116ZM184.394 38.196V38.696H184.894V38.196H184.394ZM181.368 51.772C179.297 51.772 177.754 51.2499 176.672 50.2694L176 51.0106C177.32 52.2061 179.132 52.772 181.368 52.772V51.772ZM176.675 50.2729C175.607 49.2852 175.034 47.7948 175.034 45.71H174.034C174.034 47.9772 174.662 49.7734 175.997 51.0071L176.675 50.2729ZM175.034 45.71V29.662H174.034V45.71H175.034ZM174.534 30.162H179.838V29.162H174.534V30.162ZM179.338 29.662V45.642H180.338V29.662H179.338ZM179.338 45.642C179.338 46.501 179.567 47.2391 180.087 47.7879L180.813 47.1001C180.517 46.7875 180.338 46.3243 180.338 45.642H179.338ZM180.096 47.7976C180.618 48.319 181.312 48.556 182.116 48.556V47.556C181.515 47.556 181.098 47.385 180.804 47.0904L180.096 47.7976ZM182.116 48.556C183.05 48.556 183.875 48.3014 184.563 47.7723L183.953 46.9797C183.462 47.3573 182.859 47.556 182.116 47.556V48.556ZM183.791 47.5543L185.219 51.2943L186.153 50.9376L184.725 47.1976L183.791 47.5543ZM185.397 50.708C184.91 51.0528 184.31 51.325 183.586 51.5166L183.842 52.4834C184.659 52.267 185.374 51.9499 185.975 51.524L185.397 50.708ZM183.596 51.5141C182.889 51.6855 182.147 51.772 181.368 51.772V52.772C182.221 52.772 183.043 52.6772 183.832 52.4859L183.596 51.5141ZM172.212 38.196V34.116H171.212V38.196H172.212ZM171.712 34.616H184.394V33.616H171.712V34.616ZM183.894 34.116V38.196H184.894V34.116H183.894ZM184.394 37.696H171.712V38.696H184.394V37.696ZM189.521 58.426L189.673 57.9494L189.521 58.426ZM187.243 57.202L186.799 56.9736L186.621 57.3191L186.912 57.5765L187.243 57.202ZM189.181 53.428L189.514 53.0543L189.031 52.6256L188.737 53.1996L189.181 53.428ZM190.575 54.278L190.393 54.7437L190.4 54.7462L190.575 54.278ZM193.941 54.04L193.641 53.64L193.63 53.6485L193.619 53.6575L193.941 54.04ZM195.165 52.306L195.622 52.5091L195.626 52.5013L195.165 52.306ZM196.117 50.062L195.709 49.7737L195.678 49.8174L195.657 49.8667L196.117 50.062ZM196.525 49.484L196.934 49.7723L196.966 49.7271L196.987 49.676L196.525 49.484ZM203.087 33.708V33.208H202.754L202.626 33.516L203.087 33.708ZM208.187 33.708L208.647 33.9038L208.944 33.208H208.187V33.708ZM199.925 53.122L199.465 52.9262L199.461 52.9363L199.925 53.122ZM197.885 56.59L197.517 56.2517L197.512 56.2572L197.885 56.59ZM195.369 58.358L195.198 57.8884L195.194 57.8898L195.369 58.358ZM195.471 52.714L195.012 52.9113L195.306 53.5962L195.828 53.0643L195.471 52.714ZM187.311 33.708V33.208H186.553L186.852 33.9053L187.311 33.708ZM192.785 33.708L193.247 33.517L193.12 33.208H192.785V33.708ZM199.109 49.008L199.466 49.3583L199.698 49.1224L199.571 48.817L199.109 49.008ZM192.343 58.368C191.444 58.368 190.554 58.2289 189.673 57.9494L189.37 58.9026C190.347 59.2124 191.339 59.368 192.343 59.368V58.368ZM189.673 57.9494C188.794 57.6709 188.101 57.2929 187.575 56.8275L186.912 57.5765C187.565 58.1537 188.39 58.5918 189.37 58.9026L189.673 57.9494ZM187.688 57.4304L189.626 53.6564L188.737 53.1996L186.799 56.9736L187.688 57.4304ZM188.849 53.8017C189.303 54.2046 189.818 54.5186 190.393 54.7436L190.758 53.8124C190.29 53.6294 189.876 53.3767 189.514 53.0543L188.849 53.8017ZM190.4 54.7462C190.994 54.9688 191.586 55.084 192.173 55.084V54.084C191.718 54.084 191.245 53.9952 190.751 53.8098L190.4 54.7462ZM192.173 55.084C193 55.084 193.717 54.8829 194.263 54.4225L193.619 53.6575C193.305 53.9224 192.843 54.084 192.173 54.084V55.084ZM194.241 54.44C194.791 54.0275 195.243 53.3624 195.622 52.5091L194.708 52.1029C194.362 52.8816 193.998 53.3725 193.641 53.64L194.241 54.44ZM195.626 52.5013L196.578 50.2573L195.657 49.8667L194.705 52.1107L195.626 52.5013ZM196.526 50.3503L196.934 49.7723L196.117 49.1957L195.709 49.7737L196.526 50.3503ZM196.987 49.676L203.549 33.9L202.626 33.516L196.064 49.292L196.987 49.676ZM203.087 34.208H208.187V33.208H203.087V34.208ZM207.727 33.5122L199.465 52.9262L200.385 53.3178L208.647 33.9038L207.727 33.5122ZM199.461 52.9363C198.886 54.3739 198.234 55.4714 197.517 56.2517L198.254 56.9283C199.078 56.0312 199.786 54.8168 200.39 53.3077L199.461 52.9363ZM197.512 56.2572C196.812 57.0428 196.04 57.5804 195.198 57.8884L195.541 58.8276C196.558 58.4556 197.463 57.8145 198.259 56.9228L197.512 56.2572ZM195.194 57.8898C194.351 58.2059 193.403 58.368 192.343 58.368V59.368C193.505 59.368 194.575 59.1901 195.545 58.8262L195.194 57.8898ZM195.931 52.5167L187.771 33.5107L186.852 33.9053L195.012 52.9113L195.931 52.5167ZM187.311 34.208H192.785V33.208H187.311V34.208ZM192.323 33.899L198.647 49.199L199.571 48.817L193.247 33.517L192.323 33.899ZM198.753 48.6577L195.115 52.3637L195.828 53.0643L199.466 49.3583L198.753 48.6577ZM80.8701 92.66L80.727 93.1391L80.7328 93.1408L80.8701 92.66ZM76.6541 90.654L76.1983 90.4485L76.0354 90.8099L76.3501 91.0509L76.6541 90.654ZM78.5241 86.506L78.8139 86.0985L78.3183 85.7461L78.0683 86.3005L78.5241 86.506ZM82.1281 88.308L81.9654 88.7809L81.9746 88.7839L82.1281 88.308ZM88.9961 88.682L89.1444 89.1596L89.1543 89.1563L88.9961 88.682ZM90.4921 87.764L90.1062 87.4461L90.4921 87.764ZM90.2201 84.942L89.9144 85.3376L89.9202 85.3421L89.9261 85.3464L90.2201 84.942ZM88.2481 84.024L88.102 84.5023L88.1143 84.5058L88.2481 84.024ZM85.5281 83.344L85.4149 83.8312L85.4279 83.8339L85.5281 83.344ZM82.5701 82.528L82.4154 83.0034L82.4185 83.0045L82.5701 82.528ZM79.8841 81.304L79.6234 81.7306L79.8841 81.304ZM77.8781 79.332L77.4514 79.5928L77.4568 79.6012L77.8781 79.332ZM78.2181 72.498L77.8008 72.2226L77.7995 72.2246L78.2181 72.498ZM81.5501 69.812L81.7539 70.2686L81.757 70.2672L81.5501 69.812ZM91.5801 69.336L91.4589 69.8211L91.4661 69.8228L91.5801 69.336ZM95.4221 70.9L95.8853 71.0883L96.0428 70.701L95.6895 70.4775L95.4221 70.9ZM93.7221 75.082L93.4741 75.5161L93.9702 75.7996L94.1853 75.2703L93.7221 75.082ZM90.3901 73.688L90.2528 74.1688L90.2619 74.1713L90.3901 73.688ZM84.5081 73.586L84.336 73.1166L84.5081 73.586ZM83.0461 74.572L83.4435 74.8758L83.4515 74.8647L83.0461 74.572ZM83.3521 77.428L83.0464 77.8236L83.0522 77.8281L83.0581 77.8324L83.3521 77.428ZM85.3242 78.312L85.1903 78.7938L85.3242 78.312ZM88.0101 78.992L87.8969 79.479L87.8993 79.4796L88.0101 78.992ZM90.9681 79.774L90.8235 80.2526L90.8265 80.2535L90.9681 79.774ZM93.6882 80.964L93.9489 80.5374L93.6882 80.964ZM95.6601 82.936L95.2334 83.1968L95.2388 83.2052L95.6601 82.936ZM95.3201 89.702L95.7349 89.9813L95.3201 89.702ZM91.9541 92.388L91.7472 91.9328L91.7446 91.934L91.9541 92.388ZM86.3441 92.908C84.4843 92.908 82.706 92.6645 81.0075 92.1792L80.7328 93.1408C82.5249 93.6528 84.396 93.908 86.3441 93.908V92.908ZM81.0133 92.1809C79.3067 91.6712 77.9615 91.0255 76.9582 90.2571L76.3501 91.0509C77.4775 91.9145 78.943 92.6062 80.727 93.1391L81.0133 92.1809ZM77.11 90.8595L78.98 86.7115L78.0683 86.3005L76.1983 90.4485L77.11 90.8595ZM78.2344 86.9135C79.2993 87.6707 80.5449 88.2917 81.9654 88.7808L82.2909 87.8352C80.9461 87.3723 79.789 86.7919 78.8139 86.0985L78.2344 86.9135ZM81.9746 88.7839C83.4279 89.2526 84.8963 89.488 86.3781 89.488V88.488C85.004 88.488 83.6391 88.27 82.2817 87.8321L81.9746 88.7839ZM86.3781 89.488C87.4908 89.488 88.4195 89.3845 89.1443 89.1595L88.8479 88.2045C88.2581 88.3875 87.4415 88.488 86.3781 88.488V89.488ZM89.1543 89.1563C89.8866 88.9122 90.4804 88.5648 90.8781 88.0819L90.1062 87.4461C89.8692 87.7339 89.4657 87.9984 88.838 88.2077L89.1543 89.1563ZM90.8781 88.0819C91.2691 87.6071 91.4681 87.0528 91.4681 86.438H90.4681C90.4681 86.8206 90.3499 87.1502 90.1062 87.4461L90.8781 88.0819ZM91.4681 86.438C91.4681 85.6489 91.1467 84.9976 90.5142 84.5376L89.9261 85.3464C90.2909 85.6117 90.4681 85.9578 90.4681 86.438H91.4681ZM90.5259 84.5464C89.9617 84.1104 89.2401 83.7806 88.382 83.5422L88.1143 84.5058C88.8882 84.7207 89.4813 85.0029 89.9144 85.3376L90.5259 84.5464ZM88.3943 83.5458C87.5606 83.2911 86.6383 83.0607 85.6283 82.8541L85.4279 83.8339C86.4127 84.0353 87.3037 84.2582 88.102 84.5022L88.3943 83.5458ZM85.6414 82.857C84.6802 82.6335 83.707 82.365 82.7218 82.0515L82.4185 83.0045C83.4279 83.3256 84.4267 83.6012 85.4149 83.831L85.6414 82.857ZM82.7249 82.0526C81.7847 81.7464 80.9253 81.3543 80.1449 80.8774L79.6234 81.7306C80.475 82.251 81.4062 82.6749 82.4154 83.0034L82.7249 82.0526ZM80.1449 80.8774C79.3945 80.4188 78.7805 79.8156 78.2995 79.0628L77.4568 79.6012C78.0185 80.4804 78.7418 81.1919 79.6234 81.7306L80.1449 80.8774ZM78.3048 79.0713C77.8674 78.3555 77.6301 77.4106 77.6301 76.204H76.6301C76.6301 77.536 76.8916 78.6765 77.4515 79.5927L78.3048 79.0713ZM77.6301 76.204C77.6301 74.9385 77.9659 73.7986 78.6368 72.7714L77.7995 72.2246C77.0197 73.4187 76.6301 74.7495 76.6301 76.204H77.6301ZM78.6355 72.7734C79.3218 71.7335 80.351 70.8945 81.7539 70.2686L81.3464 69.3554C79.8027 70.0441 78.6105 70.9958 77.8008 72.2226L78.6355 72.7734ZM81.757 70.2672C83.1689 69.6254 84.9629 69.292 87.1601 69.292V68.292C84.8694 68.292 82.9234 68.6386 81.3432 69.3568L81.757 70.2672ZM87.1601 69.292C88.6153 69.292 90.0479 69.4683 91.4589 69.8211L91.7014 68.8509C90.2111 68.4783 88.697 68.292 87.1601 68.292V69.292ZM91.4661 69.8228C92.8696 70.1518 94.0971 70.6534 95.1548 71.3225L95.6895 70.4775C94.5258 69.7413 93.192 69.2002 91.6942 68.8492L91.4661 69.8228ZM94.959 70.7117L93.259 74.8937L94.1853 75.2703L95.8853 71.0883L94.959 70.7117ZM93.9702 74.6479C92.8261 73.9941 91.6754 73.5117 90.5184 73.2047L90.2619 74.1713C91.3263 74.4537 92.3969 74.9006 93.4741 75.5161L93.9702 74.6479ZM90.5275 73.2072C89.3759 72.8782 88.2417 72.712 87.1262 72.712V73.712C88.1413 73.712 89.1831 73.8631 90.2528 74.1688L90.5275 73.2072ZM87.1262 72.712C86.0272 72.712 85.0906 72.8399 84.336 73.1166L84.6803 74.0554C85.2857 73.8335 86.0945 73.712 87.1262 73.712V72.712ZM84.336 73.1166C83.6016 73.3858 83.0143 73.7621 82.6408 74.2793L83.4515 74.8647C83.6673 74.5659 84.0547 74.2848 84.6803 74.0554L84.336 73.1166ZM82.649 74.2683C82.2825 74.7475 82.1041 75.3096 82.1041 75.932H83.1041C83.1041 75.5117 83.2205 75.1672 83.4433 74.8757L82.649 74.2683ZM82.1041 75.932C82.1041 76.7042 82.4295 77.3469 83.0464 77.8236L83.6579 77.0324C83.2775 76.7384 83.1041 76.3838 83.1041 75.932H82.1041ZM83.0581 77.8324C83.6195 78.2407 84.3367 78.5566 85.1903 78.7938L85.458 77.8302C84.6796 77.614 84.0822 77.3407 83.6462 77.0236L83.0581 77.8324ZM85.1903 78.7938C86.0142 79.0226 86.9165 79.251 87.8969 79.479L88.1234 78.505C87.1544 78.2797 86.2661 78.0547 85.458 77.8302L85.1903 78.7938ZM87.8993 79.4796C88.8853 79.7037 89.86 79.9613 90.8235 80.2526L91.1128 79.2954C90.1269 78.9973 89.1296 78.7337 88.121 78.5044L87.8993 79.4796ZM90.8265 80.2535C91.7856 80.5369 92.6517 80.9166 93.4274 81.3906L93.9489 80.5374C93.0926 80.0141 92.1454 79.6004 91.1098 79.2945L90.8265 80.2535ZM93.4274 81.3906C94.1757 81.8479 94.7762 82.4484 95.2335 83.1967L96.0868 82.6753C95.5468 81.7916 94.8326 81.0774 93.9489 80.5374L93.4274 81.3906ZM95.2388 83.2052C95.6959 83.9207 95.9421 84.8516 95.9421 86.03H96.9421C96.9421 84.715 96.667 83.5833 96.0815 82.6668L95.2388 83.2052ZM95.9421 86.03C95.9421 87.2677 95.5979 88.3945 94.9054 89.4227L95.7349 89.9813C96.5384 88.7882 96.9421 87.467 96.9421 86.03H95.9421ZM94.9054 89.4227C94.2197 90.4409 93.1782 91.2824 91.7472 91.9328L92.1611 92.8432C93.7221 92.1336 94.9246 91.1844 95.7349 89.9813L94.9054 89.4227ZM91.7446 91.934C90.3576 92.5742 88.5653 92.908 86.3441 92.908V93.908C88.6563 93.908 90.604 93.5618 92.1637 92.842L91.7446 91.934ZM105.102 92.082L104.868 92.5239L104.873 92.5266L105.102 92.082ZM101.464 88.716L101.036 88.9743L101.039 88.9792L101.464 88.716ZM101.464 78.992L101.039 78.7288L101.037 78.7307L101.464 78.992ZM105.102 75.66L105.331 76.1046L105.336 76.1019L105.102 75.66ZM115.404 75.66L115.156 76.0942L115.161 76.0971L115.404 75.66ZM118.566 79.094L118.802 79.5345L119.215 79.313L119.021 78.8871L118.566 79.094ZM114.452 81.304L114.014 81.5458L114.253 81.9783L114.688 81.7445L114.452 81.304ZM112.65 79.4L112.399 79.8324L112.405 79.8358L112.65 79.4ZM107.89 79.4L108.135 79.8358L107.89 79.4ZM106.156 81.134L105.722 80.8845L105.717 80.8946L106.156 81.134ZM106.156 86.574L105.717 86.8135L105.722 86.8235L106.156 86.574ZM107.89 88.308L108.135 87.8722L107.89 88.308ZM112.65 88.342L112.89 88.7804L112.895 88.7778L112.65 88.342ZM114.452 86.404L114.691 85.965L114.25 85.7243L114.012 86.1669L114.452 86.404ZM118.566 88.648L119.02 88.8575L119.216 88.433L118.805 88.2091L118.566 88.648ZM115.404 92.082L115.647 92.5191L115.652 92.5161L115.404 92.082ZM110.372 92.772C108.468 92.772 106.792 92.3896 105.331 91.6374L104.873 92.5266C106.494 93.3611 108.331 93.772 110.372 93.772V92.772ZM105.336 91.6401C103.87 90.864 102.724 89.8024 101.889 88.4528L101.039 88.9792C101.971 90.4856 103.251 91.668 104.868 92.5239L105.336 91.6401ZM101.892 88.4578C101.082 87.1144 100.672 85.5845 100.672 83.854H99.6718C99.6718 85.7501 100.123 87.4616 101.036 88.9742L101.892 88.4578ZM100.672 83.854C100.672 82.0994 101.082 80.5713 101.89 79.2533L101.037 78.7307C100.123 80.2234 99.6718 81.9366 99.6718 83.854H100.672ZM101.889 79.2552C102.724 77.9069 103.867 76.8578 105.331 76.1046L104.873 75.2154C103.254 76.0489 101.972 77.2211 101.039 78.7288L101.889 79.2552ZM105.336 76.1019C106.796 75.3288 108.471 74.936 110.372 74.936V73.936C108.329 73.936 106.49 74.3592 104.868 75.2181L105.336 76.1019ZM110.372 74.936C112.226 74.936 113.815 75.3282 115.156 76.0941L115.652 75.2259C114.136 74.3598 112.37 73.936 110.372 73.936V74.936ZM115.161 76.0971C116.495 76.8381 117.475 77.9018 118.111 79.3009L119.021 78.8871C118.297 77.2942 117.169 76.0686 115.647 75.2229L115.161 76.0971ZM118.329 78.6535L114.215 80.8635L114.688 81.7445L118.802 79.5345L118.329 78.6535ZM114.889 81.0622C114.377 80.1346 113.715 79.4255 112.895 78.9642L112.405 79.8358C113.035 80.1905 113.575 80.7508 114.014 81.5458L114.889 81.0622ZM112.901 78.9676C112.119 78.5139 111.262 78.288 110.338 78.288V79.288C111.091 79.288 111.775 79.4701 112.399 79.8324L112.901 78.9676ZM110.338 78.288C109.353 78.288 108.451 78.5104 107.645 78.9642L108.135 79.8358C108.779 79.4736 109.509 79.288 110.338 79.288V78.288ZM107.645 78.9642C106.838 79.418 106.196 80.0617 105.722 80.8845L106.589 81.3835C106.977 80.7103 107.491 80.198 108.135 79.8358L107.645 78.9642ZM105.717 80.8946C105.26 81.7322 105.044 82.7256 105.044 83.854H106.044C106.044 82.8517 106.236 82.0318 106.595 81.3734L105.717 80.8946ZM105.044 83.854C105.044 84.9824 105.26 85.9758 105.717 86.8134L106.595 86.3346C106.236 85.6762 106.044 84.8563 106.044 83.854H105.044ZM105.722 86.8235C106.196 87.6463 106.838 88.29 107.645 88.7438L108.135 87.8722C107.491 87.51 106.977 86.9977 106.589 86.3245L105.722 86.8235ZM107.645 88.7438C108.451 89.1976 109.353 89.42 110.338 89.42V88.42C109.509 88.42 108.779 88.2344 108.135 87.8722L107.645 88.7438ZM110.338 89.42C111.256 89.42 112.11 89.2081 112.89 88.7804L112.409 87.9036C111.784 88.2466 111.096 88.42 110.338 88.42V89.42ZM112.895 88.7778C113.718 88.3146 114.38 87.5911 114.892 86.6411L114.012 86.1669C113.571 86.9849 113.032 87.5534 112.405 87.9062L112.895 88.7778ZM114.212 86.8429L118.326 89.0869L118.805 88.2091L114.691 85.965L114.212 86.8429ZM118.112 88.4385C117.476 89.816 116.495 90.8827 115.156 91.6479L115.652 92.5161C117.169 91.6493 118.296 90.4267 119.02 88.8575L118.112 88.4385ZM115.161 91.6449C113.82 92.3902 112.229 92.772 110.372 92.772V93.772C112.368 93.772 114.132 93.3605 115.647 92.5191L115.161 91.6449ZM138.214 75.32L137.983 75.7637L137.994 75.769L138.214 75.32ZM140.934 77.972L140.495 78.212L140.497 78.2155L140.934 77.972ZM141.92 93V93.5H142.42V93H141.92ZM136.616 93H136.116V93.5H136.616V93ZM135.63 80.08L135.259 80.4152L135.265 80.4216L135.63 80.08ZM130.632 79.57L130.862 80.0141L130.867 80.0112L130.632 79.57ZM129.068 81.168L128.626 80.9333L128.621 80.9444L129.068 81.168ZM128.524 93V93.5H129.024V93H128.524ZM123.22 93H122.72V93.5H123.22V93ZM123.22 67.772V67.272H122.72V67.772H123.22ZM128.524 67.772H129.024V67.272H128.524V67.772ZM128.524 79.774L128.129 80.081L129.024 81.2313V79.774H128.524ZM127.334 78.244L126.894 78.0074L126.74 78.2941L126.939 78.551L127.334 78.244ZM130.156 75.422L130.393 75.8625L130.156 75.422ZM134.338 74.936C135.719 74.936 136.93 75.2161 137.983 75.7636L138.445 74.8764C137.231 74.2453 135.858 73.936 134.338 73.936V74.936ZM137.994 75.769C139.051 76.2872 139.884 77.0951 140.495 78.212L141.373 77.732C140.669 76.4462 139.689 75.4861 138.434 74.871L137.994 75.769ZM140.497 78.2155C141.1 79.2969 141.42 80.7239 141.42 82.528H142.42C142.42 80.6147 142.082 79.0044 141.371 77.7285L140.497 78.2155ZM141.42 82.528V93H142.42V82.528H141.42ZM141.92 92.5H136.616V93.5H141.92V92.5ZM137.116 93V83.344H136.116V93H137.116ZM137.116 83.344C137.116 81.8092 136.775 80.5724 135.995 79.7384L135.265 80.4216C135.799 80.9929 136.116 81.9321 136.116 83.344H137.116ZM136.001 79.7449C135.249 78.9125 134.193 78.526 132.91 78.526V79.526C133.985 79.526 134.742 79.8422 135.259 80.4151L136.001 79.7449ZM132.91 78.526C131.997 78.526 131.155 78.7242 130.397 79.1288L130.867 80.0112C131.469 79.6905 132.146 79.526 132.91 79.526V78.526ZM130.402 79.1259C129.645 79.5177 129.054 80.1286 128.627 80.9334L129.51 81.4026C129.853 80.7567 130.305 80.3023 130.862 80.0141L130.402 79.1259ZM128.621 80.9444C128.212 81.7611 128.024 82.7741 128.024 83.956H129.024C129.024 82.8713 129.198 82.0255 129.515 81.3916L128.621 80.9444ZM128.024 83.956V93H129.024V83.956H128.024ZM128.524 92.5H123.22V93.5H128.524V92.5ZM123.72 93V67.772H122.72V93H123.72ZM123.22 68.272H128.524V67.272H123.22V68.272ZM128.024 67.772V79.774H129.024V67.772H128.024ZM128.919 79.467L127.729 77.937L126.939 78.551L128.129 80.081L128.919 79.467ZM127.775 78.4806C128.385 77.3431 129.255 76.4734 130.393 75.8625L129.92 74.9815C128.609 75.6853 127.597 76.6969 126.894 78.0074L127.775 78.4806ZM130.393 75.8625C131.535 75.2489 132.846 74.936 134.338 74.936V73.936C132.702 73.936 131.225 74.2804 129.92 74.9815L130.393 75.8625ZM152.063 92.048L151.823 92.487L151.826 92.4884L152.063 92.048ZM148.493 88.716L148.064 88.9743L148.069 88.9822L148.493 88.716ZM148.493 78.992L148.068 78.7288L148.066 78.7307L148.493 78.992ZM152.063 75.66L152.297 76.1017L152.299 76.1004L152.063 75.66ZM162.433 75.66L162.196 76.1005L162.201 76.1032L162.433 75.66ZM166.003 88.716L166.429 88.9773L166.431 88.9742L166.003 88.716ZM162.433 92.048L162.196 91.6076L162.433 92.048ZM159.645 88.308L159.896 88.7404L159.645 88.308ZM161.311 86.574L161.75 86.8134L161.753 86.8079L161.311 86.574ZM161.311 81.134L160.872 81.3734L161.311 81.134ZM159.645 79.4L159.394 79.8324H159.394L159.645 79.4ZM154.885 79.4L155.136 79.8324L154.885 79.4ZM153.185 81.134L152.751 80.8845L152.746 80.8946L153.185 81.134ZM153.185 86.574L152.743 86.8079L152.747 86.8158L152.751 86.8235L153.185 86.574ZM154.885 88.308L155.136 87.8756L154.885 88.308ZM157.265 92.772C155.387 92.772 153.736 92.3796 152.299 91.6076L151.826 92.4884C153.427 93.3484 155.244 93.772 157.265 93.772V92.772ZM152.302 91.6091C150.879 90.8328 149.753 89.7808 148.916 88.4498L148.069 88.9822C149 90.4619 150.254 91.6312 151.823 92.4869L152.302 91.6091ZM148.921 88.4578C148.111 87.1144 147.701 85.5845 147.701 83.854H146.701C146.701 85.7501 147.152 87.4616 148.065 88.9742L148.921 88.4578ZM147.701 83.854C147.701 82.0994 148.111 80.5713 148.919 79.2533L148.066 78.7307C147.152 80.2234 146.701 81.9366 146.701 83.854H147.701ZM148.918 79.2552C149.755 77.9032 150.879 76.8539 152.297 76.1017L151.828 75.2183C150.255 76.0528 148.999 77.2248 148.068 78.7288L148.918 79.2552ZM152.299 76.1004C153.736 75.3284 155.387 74.936 157.265 74.936V73.936C155.244 73.936 153.427 74.3596 151.826 75.2196L152.299 76.1004ZM157.265 74.936C159.119 74.936 160.758 75.328 162.196 76.1004L162.669 75.2196C161.07 74.36 159.264 73.936 157.265 73.936V74.936ZM162.201 76.1032C163.643 76.8563 164.764 77.8942 165.576 79.2193L166.429 78.6967C165.518 77.2111 164.26 76.0503 162.664 75.2168L162.201 76.1032ZM165.576 79.2193C166.384 80.5363 166.795 82.0755 166.795 83.854H167.795C167.795 81.9152 167.344 80.1904 166.429 78.6967L165.576 79.2193ZM166.795 83.854C166.795 85.5845 166.385 87.1144 165.575 88.4578L166.431 88.9742C167.343 87.4616 167.795 85.7501 167.795 83.854H166.795ZM165.576 88.4547C164.763 89.7811 163.64 90.8314 162.196 91.6076L162.669 92.4884C164.262 91.6326 165.519 90.4616 166.429 88.9773L165.576 88.4547ZM162.196 91.6076C160.758 92.38 159.119 92.772 157.265 92.772V93.772C159.264 93.772 161.07 93.348 162.669 92.4884L162.196 91.6076ZM157.265 89.42C158.229 89.42 159.11 89.1965 159.896 88.7404L159.394 87.8756C158.774 88.2355 158.069 88.42 157.265 88.42V89.42ZM159.896 88.7404C160.681 88.2842 161.3 87.6376 161.75 86.8134L160.872 86.3346C160.505 87.0064 160.013 87.5158 159.394 87.8756L159.896 88.7404ZM161.753 86.8079C162.206 85.9524 162.423 84.9623 162.423 83.854H161.423C161.423 84.831 161.232 85.6543 160.869 86.3401L161.753 86.8079ZM162.423 83.854C162.423 82.7256 162.207 81.7322 161.75 80.8946L160.872 81.3734C161.231 82.0318 161.423 82.8517 161.423 83.854H162.423ZM161.75 80.8946C161.3 80.0704 160.681 79.4238 159.896 78.9676L159.394 79.8324C160.013 80.1922 160.505 80.7016 160.872 81.3734L161.75 80.8946ZM159.896 78.9676C159.11 78.5115 158.229 78.288 157.265 78.288V79.288C158.069 79.288 158.774 79.4725 159.394 79.8324L159.896 78.9676ZM157.265 78.288C156.301 78.288 155.419 78.5115 154.634 78.9676L155.136 79.8324C155.756 79.4725 156.461 79.288 157.265 79.288V78.288ZM154.634 78.9676C153.851 79.4223 153.223 80.0655 152.751 80.8845L153.618 81.3835C154.008 80.7065 154.514 80.1937 155.136 79.8324L154.634 78.9676ZM152.746 80.8946C152.289 81.7322 152.073 82.7256 152.073 83.854H153.073C153.073 82.8517 153.265 82.0318 153.624 81.3734L152.746 80.8946ZM152.073 83.854C152.073 84.9623 152.29 85.9524 152.743 86.8079L153.627 86.3401C153.264 85.6543 153.073 84.831 153.073 83.854H152.073ZM152.751 86.8235C153.223 87.6425 153.851 88.2857 154.634 88.7404L155.136 87.8756C154.514 87.5143 154.008 87.0015 153.618 86.3245L152.751 86.8235ZM154.634 88.7404C155.419 89.1965 156.301 89.42 157.265 89.42V88.42C156.461 88.42 155.756 88.2355 155.136 87.8756L154.634 88.7404ZM176.042 92.048L175.803 92.487L175.805 92.4884L176.042 92.048ZM172.472 88.716L172.044 88.9743L172.049 88.9822L172.472 88.716ZM172.472 78.992L172.047 78.7288L172.046 78.7307L172.472 78.992ZM176.042 75.66L176.276 76.1017L176.279 76.1004L176.042 75.66ZM186.412 75.66L186.175 76.1005L186.18 76.1032L186.412 75.66ZM189.982 88.716L190.408 88.9773L190.41 88.9742L189.982 88.716ZM186.412 92.048L186.175 91.6076L186.412 92.048ZM183.624 88.308L183.875 88.7404L183.624 88.308ZM185.29 86.574L185.729 86.8134L185.732 86.8079L185.29 86.574ZM185.29 81.134L184.851 81.3734L185.29 81.134ZM183.624 79.4L183.373 79.8324H183.373L183.624 79.4ZM178.864 79.4L179.115 79.8324L178.864 79.4ZM177.164 81.134L176.731 80.8845L176.725 80.8946L177.164 81.134ZM177.164 86.574L176.722 86.8079L176.726 86.8158L176.731 86.8235L177.164 86.574ZM178.864 88.308L179.115 87.8756L178.864 88.308ZM181.244 92.772C179.366 92.772 177.716 92.3796 176.279 91.6076L175.805 92.4884C177.406 93.3484 179.223 93.772 181.244 93.772V92.772ZM176.281 91.6091C174.858 90.8328 173.732 89.7808 172.895 88.4498L172.049 88.9822C172.98 90.4619 174.234 91.6312 175.803 92.4869L176.281 91.6091ZM172.9 88.4578C172.09 87.1144 171.68 85.5845 171.68 83.854H170.68C170.68 85.7501 171.131 87.4616 172.044 88.9742L172.9 88.4578ZM171.68 83.854C171.68 82.0994 172.091 80.5713 172.898 79.2533L172.046 78.7307C171.131 80.2234 170.68 81.9366 170.68 83.854H171.68ZM172.897 79.2552C173.734 77.9032 174.858 76.8539 176.276 76.1017L175.808 75.2183C174.234 76.0528 172.978 77.2248 172.047 78.7288L172.897 79.2552ZM176.279 76.1004C177.716 75.3284 179.366 74.936 181.244 74.936V73.936C179.223 73.936 177.406 74.3596 175.805 75.2196L176.279 76.1004ZM181.244 74.936C183.098 74.936 184.738 75.328 186.175 76.1004L186.649 75.2196C185.049 74.36 183.243 73.936 181.244 73.936V74.936ZM186.18 76.1032C187.622 76.8563 188.744 77.8942 189.556 79.2193L190.408 78.6967C189.498 77.2111 188.239 76.0503 186.644 75.2168L186.18 76.1032ZM189.556 79.2193C190.363 80.5363 190.774 82.0755 190.774 83.854H191.774C191.774 81.9152 191.324 80.1904 190.408 78.6967L189.556 79.2193ZM190.774 83.854C190.774 85.5845 190.364 87.1144 189.554 88.4578L190.41 88.9742C191.323 87.4616 191.774 85.7501 191.774 83.854H190.774ZM189.556 88.4547C188.743 89.7811 187.62 90.8314 186.175 91.6076L186.649 92.4884C188.242 91.6326 189.499 90.4616 190.408 88.9773L189.556 88.4547ZM186.175 91.6076C184.738 92.38 183.098 92.772 181.244 92.772V93.772C183.243 93.772 185.049 93.348 186.649 92.4884L186.175 91.6076ZM181.244 89.42C182.208 89.42 183.09 89.1965 183.875 88.7404L183.373 87.8756C182.753 88.2355 182.048 88.42 181.244 88.42V89.42ZM183.875 88.7404C184.661 88.2842 185.279 87.6376 185.729 86.8134L184.851 86.3346C184.485 87.0064 183.993 87.5158 183.373 87.8756L183.875 88.7404ZM185.732 86.8079C186.185 85.9524 186.402 84.9623 186.402 83.854H185.402C185.402 84.831 185.211 85.6543 184.848 86.3401L185.732 86.8079ZM186.402 83.854C186.402 82.7256 186.186 81.7322 185.729 80.8946L184.851 81.3734C185.21 82.0318 185.402 82.8517 185.402 83.854H186.402ZM185.729 80.8946C185.279 80.0704 184.661 79.4238 183.875 78.9676L183.373 79.8324C183.993 80.1922 184.485 80.7016 184.851 81.3734L185.729 80.8946ZM183.875 78.9676C183.09 78.5115 182.208 78.288 181.244 78.288V79.288C182.048 79.288 182.753 79.4725 183.373 79.8324L183.875 78.9676ZM181.244 78.288C180.28 78.288 179.398 78.5115 178.613 78.9676L179.115 79.8324C179.735 79.4725 180.44 79.288 181.244 79.288V78.288ZM178.613 78.9676C177.83 79.4223 177.202 80.0655 176.731 80.8845L177.597 81.3835C177.987 80.7065 178.493 80.1937 179.115 79.8324L178.613 78.9676ZM176.725 80.8946C176.268 81.7322 176.052 82.7256 176.052 83.854H177.052C177.052 82.8517 177.244 82.0318 177.603 81.3734L176.725 80.8946ZM176.052 83.854C176.052 84.9623 176.269 85.9524 176.722 86.8079L177.606 86.3401C177.243 85.6543 177.052 84.831 177.052 83.854H176.052ZM176.731 86.8235C177.202 87.6425 177.83 88.2857 178.613 88.7404L179.115 87.8756C178.493 87.5143 177.987 87.0015 177.597 86.3245L176.731 86.8235ZM178.613 88.7404C179.398 89.1965 180.28 89.42 181.244 89.42V88.42C180.44 88.42 179.735 88.2355 179.115 87.8756L178.613 88.7404ZM196.519 93H196.019V93.5H196.519V93ZM196.519 67.772V67.272H196.019V67.772H196.519ZM201.823 67.772H202.323V67.272H201.823V67.772ZM201.823 93V93.5H202.323V93H201.823ZM197.019 93V67.772H196.019V93H197.019ZM196.519 68.272H201.823V67.272H196.519V68.272ZM201.323 67.772V93H202.323V67.772H201.323ZM201.823 92.5H196.519V93.5H201.823V92.5Z" fill="black" mask="url(#path-1-outside-1_852_681)"/>
</g>
<g filter="url(#filter1_d_852_681)">
<mask id="path-3-inside-2_852_681" fill="white">
<path fill-rule="evenodd" clip-rule="evenodd" d="M28.3645 4.70851e-05L28.3628 22.4235L38.3254 32.2115L39.6525 33.5369L28.8662 44.0757C28.9315 44.1418 28.9976 44.2074 29.0645 44.2726C34.9948 50.052 44.7903 49.8761 50.9432 43.8798C57.0961 37.8835 57.2766 28.3375 51.3462 22.5581C50.7564 21.9832 50.1282 21.4673 49.4693 21.0101L28.3645 4.70851e-05Z"/>
</mask>
<path fill-rule="evenodd" clip-rule="evenodd" d="M28.3645 4.70851e-05L28.3628 22.4235L38.3254 32.2115L39.6525 33.5369L28.8662 44.0757C28.9315 44.1418 28.9976 44.2074 29.0645 44.2726C34.9948 50.052 44.7903 49.8761 50.9432 43.8798C57.0961 37.8835 57.2766 28.3375 51.3462 22.5581C50.7564 21.9832 50.1282 21.4673 49.4693 21.0101L28.3645 4.70851e-05Z" fill="url(#paint0_linear_852_681)"/>
<path d="M28.3628 22.4235L28.0589 22.4235L28.0589 22.5454L28.1471 22.632L28.3628 22.4235ZM28.3645 4.70851e-05L28.5816 -0.207093L28.0607 -0.725665L28.0606 2.50475e-05L28.3645 4.70851e-05ZM38.3254 32.2115L38.5429 32.0047L38.5411 32.003L38.3254 32.2115ZM39.6525 33.5369L39.8677 33.746L40.0794 33.5392L39.87 33.3301L39.6525 33.5369ZM28.8662 44.0757L28.6511 43.8666L28.4408 44.072L28.6473 44.281L28.8662 44.0757ZM49.4693 21.0101L49.2522 21.2173L49.2711 21.2361L49.2931 21.2514L49.4693 21.0101ZM28.6666 22.4235L28.6683 6.91228e-05L28.0606 2.50475e-05L28.0589 22.4235L28.6666 22.4235ZM38.5411 32.003L28.5785 22.215L28.1471 22.632L38.1097 32.4201L38.5411 32.003ZM38.108 32.4183L39.4351 33.7437L39.87 33.3301L38.5429 32.0047L38.108 32.4183ZM39.4374 33.3278L28.6511 43.8666L29.0813 44.2848L39.8677 33.746L39.4374 33.3278ZM28.6473 44.281C28.714 44.3485 28.7814 44.4155 28.8496 44.482L29.2793 44.0632C29.2138 43.9994 29.1491 43.9351 29.0851 43.8703L28.6473 44.281ZM28.8496 44.482C34.906 50.3842 44.894 50.1938 51.158 44.0892L50.7283 43.6705C44.6865 49.5585 35.0836 49.7198 29.2793 44.0632L28.8496 44.482ZM51.158 44.0892C57.4221 37.9846 57.6175 28.2509 51.5611 22.3487L51.1314 22.7674C56.9357 28.424 56.7701 37.7825 50.7283 43.6705L51.158 44.0892ZM51.5611 22.3487C50.9592 21.7621 50.3182 21.2356 49.6455 20.7689L49.2931 21.2514C49.9383 21.699 50.5535 22.2043 51.1314 22.7674L51.5611 22.3487ZM28.1474 0.207186L49.2522 21.2173L49.6864 20.803L28.5816 -0.207093L28.1474 0.207186Z" fill="#0C0C0C" mask="url(#path-3-inside-2_852_681)"/>
<path d="M53.1923 24.4353V24.4353H53.191H52.5593L48.6984 20.5761L51.0374 18.7627L51.0377 18.7631L51.0468 18.7548C53.584 16.4301 57.4801 16.7087 59.9788 19.1107L65.6244 24.5378L53.1923 24.4353Z" fill="#201F1F" stroke="black" stroke-width="0.3"/>
</g>
<path d="M18.6259 54.2744L29.2959 54.5353L29.0281 44.137L18.6259 54.2744Z" fill="#009CF5" stroke="#090909" stroke-width="0.3"/>
<path d="M103.75 27.5C103.75 29.8472 101.847 31.75 99.5 31.75C97.1528 31.75 95.25 29.8472 95.25 27.5C95.25 25.1528 97.1528 23.25 99.5 23.25C101.847 23.25 103.75 25.1528 103.75 27.5Z" fill="#01F4BC" stroke="black" stroke-width="0.5"/>
</g>
<defs>
<filter id="filter0_d_852_681" x="74.4182" y="24.742" width="142.525" height="77.166" filterUnits="userSpaceOnUse" color-interpolation-filters="sRGB">
<feFlood flood-opacity="0" result="BackgroundImageFix"/>
<feColorMatrix in="SourceAlpha" type="matrix" values="0 0 0 0 0 0 0 0 0 0 0 0 0 0 0 0 0 0 127 0" result="hardAlpha"/>
<feOffset dx="4" dy="4"/>
<feGaussianBlur stdDeviation="2"/>
<feComposite in2="hardAlpha" operator="out"/>
<feColorMatrix type="matrix" values="0 0 0 0 0 0 0 0 0 0 0 0 0 0 0 0 0 0 0.25 0"/>
<feBlend mode="normal" in2="BackgroundImageFix" result="effect1_dropShadow_852_681"/>
<feBlend mode="normal" in="SourceGraphic" in2="effect1_dropShadow_852_681" result="shape"/>
</filter>
<filter id="filter1_d_852_681" x="28.3628" y="4.76837e-05" width="45.6372" height="56.4946" filterUnits="userSpaceOnUse" color-interpolation-filters="sRGB">
<feFlood flood-opacity="0" result="BackgroundImageFix"/>
<feColorMatrix in="SourceAlpha" type="matrix" values="0 0 0 0 0 0 0 0 0 0 0 0 0 0 0 0 0 0 127 0" result="hardAlpha"/>
<feOffset dx="4" dy="4"/>
<feGaussianBlur stdDeviation="2"/>
<feComposite in2="hardAlpha" operator="out"/>
<feColorMatrix type="matrix" values="0 0 0 0 0 0 0 0 0 0 0 0 0 0 0 0 0 0 0.25 0"/>
<feBlend mode="normal" in2="BackgroundImageFix" result="effect1_dropShadow_852_681"/>
<feBlend mode="normal" in="SourceGraphic" in2="effect1_dropShadow_852_681" result="shape"/>
</filter>
<linearGradient id="paint0_linear_852_681" x1="17" y1="17" x2="48.1857" y2="51.1415" gradientUnits="userSpaceOnUse">
<stop stop-color="#00FF9D"/>
<stop offset="0.491" stop-color="#00E7EB"/>
<stop offset="0.849611" stop-color="#039BF5"/>
</linearGradient>
<clipPath id="clip0_852_681">
<rect width="227" height="96" fill="white"/>
</clipPath>
</defs>
</svg>
