<svg width="144" height="71" viewBox="0 0 144 71" fill="none" xmlns="http://www.w3.org/2000/svg">
<path d="M48.0691 38V20.138H52.7231V34.178H61.7971V38H48.0691ZM63.9304 22.452V19.176H68.1944V22.452H63.9304ZM63.9304 38V24.298H68.1944V38H63.9304ZM79.6626 38.312C78.7786 38.312 77.9639 38.13 77.2186 37.766C76.4733 37.402 75.8753 36.8473 75.4246 36.102H75.2426L74.9306 38H71.4466V19.176H75.7106V25.702H75.8666C76.1439 25.338 76.4733 25.026 76.8546 24.766C77.2533 24.506 77.6953 24.3153 78.1806 24.194C78.6659 24.0553 79.1859 23.986 79.7406 23.986C80.8673 23.986 81.8466 24.246 82.6786 24.766C83.5106 25.286 84.1519 26.0747 84.6026 27.132C85.0533 28.172 85.2786 29.498 85.2786 31.11C85.2786 32.7567 85.0533 34.1087 84.6026 35.166C84.1519 36.2233 83.5019 37.012 82.6526 37.532C81.8206 38.052 80.8239 38.312 79.6626 38.312ZM78.3366 34.984C78.9779 34.984 79.4893 34.8627 79.8706 34.62C80.2693 34.36 80.5553 33.9787 80.7286 33.476C80.9019 32.9733 80.9886 32.358 80.9886 31.63V30.72C80.9886 29.9747 80.9019 29.3507 80.7286 28.848C80.5553 28.3453 80.2693 27.964 79.8706 27.704C79.4893 27.444 78.9779 27.314 78.3366 27.314C77.8686 27.314 77.4613 27.4007 77.1146 27.574C76.7853 27.7473 76.5079 27.99 76.2826 28.302C76.0746 28.614 75.9186 28.9867 75.8146 29.42C75.7279 29.8533 75.6846 30.33 75.6846 30.85V31.474C75.6846 32.1847 75.7713 32.8087 75.9446 33.346C76.1353 33.866 76.4213 34.2733 76.8026 34.568C77.2013 34.8453 77.7126 34.984 78.3366 34.984ZM94.5817 38.312C93.0217 38.312 91.6957 38.0607 90.6037 37.558C89.5117 37.038 88.6711 36.2493 88.0817 35.192C87.5097 34.1347 87.2237 32.7827 87.2237 31.136C87.2237 29.524 87.5097 28.1893 88.0817 27.132C88.6537 26.0747 89.4771 25.286 90.5517 24.766C91.6264 24.246 92.9177 23.986 94.4257 23.986C95.9164 23.986 97.1731 24.2373 98.1957 24.74C99.2357 25.2427 100.024 26.014 100.562 27.054C101.099 28.094 101.368 29.4373 101.368 31.084V31.994H91.5397C91.5397 32.722 91.6437 33.3373 91.8517 33.84C92.0597 34.3427 92.3804 34.724 92.8137 34.984C93.2471 35.244 93.8277 35.374 94.5557 35.374C94.9891 35.374 95.3704 35.322 95.6997 35.218C96.0291 35.114 96.3064 34.9667 96.5317 34.776C96.7571 34.568 96.9304 34.3253 97.0517 34.048C97.1731 33.7707 97.2337 33.4587 97.2337 33.112H101.368C101.368 33.944 101.212 34.6893 100.9 35.348C100.605 35.9893 100.163 36.5353 99.5737 36.986C98.9844 37.4193 98.2651 37.7487 97.4157 37.974C96.5837 38.1993 95.6391 38.312 94.5817 38.312ZM91.5657 29.628H97.0257C97.0257 29.1773 96.9651 28.7873 96.8437 28.458C96.7397 28.1113 96.5751 27.8253 96.3497 27.6C96.1417 27.3747 95.8817 27.21 95.5697 27.106C95.2751 26.9847 94.9284 26.924 94.5297 26.924C93.9057 26.924 93.3857 27.028 92.9697 27.236C92.5537 27.444 92.2331 27.7473 92.0077 28.146C91.7824 28.5447 91.6351 29.0387 91.5657 29.628ZM103.971 38V24.298H107.481L107.793 26.404H107.975C108.183 25.936 108.435 25.52 108.729 25.156C109.041 24.7747 109.414 24.48 109.847 24.272C110.298 24.064 110.792 23.96 111.329 23.96C111.641 23.96 111.927 23.9947 112.187 24.064C112.447 24.116 112.638 24.1767 112.759 24.246V27.964H111.407C110.87 27.964 110.393 28.042 109.977 28.198C109.579 28.3367 109.249 28.562 108.989 28.874C108.729 29.1687 108.539 29.5327 108.417 29.966C108.296 30.3993 108.235 30.902 108.235 31.474V38H103.971ZM119.369 38.312C118.485 38.312 117.731 38.182 117.107 37.922C116.501 37.6447 116.041 37.2373 115.729 36.7C115.435 36.1627 115.287 35.5127 115.287 34.75V27.392H113.493V24.298H115.417L116.301 20.294H119.525V24.298H122.203V27.392H119.525V33.71C119.525 34.1953 119.621 34.568 119.811 34.828C120.002 35.088 120.349 35.218 120.851 35.218H122.203V37.87C121.978 37.9393 121.692 38.0087 121.345 38.078C121.016 38.1647 120.678 38.2253 120.331 38.26C119.985 38.2947 119.664 38.312 119.369 38.312ZM126.747 43.122C126.123 43.122 125.577 43.07 125.109 42.966C124.641 42.8793 124.312 42.8013 124.121 42.732V40.028H125.915C126.401 40.028 126.817 39.9153 127.163 39.69C127.51 39.482 127.779 39.222 127.969 38.91C128.177 38.6153 128.325 38.312 128.411 38L123.003 24.298H127.553L129.581 30.304C129.685 30.5813 129.798 30.9453 129.919 31.396C130.058 31.8293 130.188 32.28 130.309 32.748C130.448 33.1987 130.561 33.606 130.647 33.97H130.803C130.873 33.7273 130.951 33.45 131.037 33.138C131.124 32.8087 131.211 32.4793 131.297 32.15C131.384 31.8033 131.471 31.474 131.557 31.162C131.661 30.85 131.748 30.5727 131.817 30.33L133.559 24.298H137.797L133.065 37.454C132.771 38.2513 132.441 38.9967 132.077 39.69C131.731 40.3833 131.315 40.9813 130.829 41.484C130.344 42.004 129.763 42.4027 129.087 42.68C128.429 42.9747 127.649 43.122 126.747 43.122ZM55.9108 66.312C54.7841 66.312 53.7268 66.208 52.7388 66C51.7508 65.8093 50.8754 65.4887 50.1128 65.038C49.3674 64.5873 48.7781 63.998 48.3448 63.27C47.9114 62.5247 47.6948 61.6147 47.6948 60.54C47.6948 60.4707 47.6948 60.3927 47.6948 60.306C47.6948 60.2193 47.7034 60.15 47.7208 60.098H52.2188C52.2188 60.15 52.2101 60.2193 52.1928 60.306C52.1928 60.3753 52.1928 60.436 52.1928 60.488C52.1928 61.0427 52.3314 61.4933 52.6088 61.84C52.9034 62.1693 53.3108 62.412 53.8308 62.568C54.3508 62.7067 54.9574 62.776 55.6508 62.776C56.0321 62.776 56.3874 62.7587 56.7168 62.724C57.0461 62.6893 57.3408 62.6287 57.6008 62.542C57.8608 62.4553 58.0861 62.3513 58.2768 62.23C58.4848 62.0913 58.6321 61.9353 58.7188 61.762C58.8228 61.5713 58.8748 61.3547 58.8748 61.112C58.8748 60.7133 58.7188 60.384 58.4068 60.124C58.1121 59.864 57.7048 59.6473 57.1848 59.474C56.6821 59.3007 56.1101 59.136 55.4688 58.98C54.8274 58.824 54.1601 58.6593 53.4668 58.486C52.7734 58.3127 52.1061 58.096 51.4648 57.836C50.8234 57.576 50.2428 57.2467 49.7228 56.848C49.2201 56.4493 48.8128 55.9553 48.5008 55.366C48.2061 54.7593 48.0588 54.0313 48.0588 53.182C48.0588 52.246 48.2581 51.44 48.6568 50.764C49.0554 50.0707 49.6014 49.5073 50.2948 49.074C51.0054 48.6407 51.8201 48.3287 52.7388 48.138C53.6574 47.93 54.6368 47.826 55.6768 47.826C56.6994 47.826 57.6528 47.93 58.5368 48.138C59.4381 48.346 60.2354 48.6753 60.9288 49.126C61.6221 49.5593 62.1594 50.114 62.5408 50.79C62.9394 51.4487 63.1474 52.246 63.1648 53.182V53.494H58.6928V53.312C58.6928 52.9133 58.5801 52.5667 58.3548 52.272C58.1468 51.96 57.8261 51.7173 57.3928 51.544C56.9594 51.3533 56.4221 51.258 55.7808 51.258C55.1394 51.258 54.5934 51.3187 54.1428 51.44C53.7094 51.5613 53.3714 51.7347 53.1288 51.96C52.9034 52.1853 52.7908 52.454 52.7908 52.766C52.7908 53.1473 52.9381 53.4593 53.2328 53.702C53.5448 53.9447 53.9608 54.1527 54.4808 54.326C55.0008 54.4993 55.5814 54.664 56.2228 54.82C56.8641 54.9587 57.5228 55.1147 58.1988 55.288C58.8921 55.444 59.5594 55.652 60.2008 55.912C60.8421 56.1547 61.4228 56.4753 61.9428 56.874C62.4628 57.2553 62.8701 57.732 63.1648 58.304C63.4768 58.876 63.6328 59.5693 63.6328 60.384C63.6328 61.8053 63.2948 62.9493 62.6188 63.816C61.9601 64.6827 61.0414 65.3153 59.8628 65.714C58.7014 66.1127 57.3841 66.312 55.9108 66.312ZM72.7657 66.312C71.2577 66.312 69.975 66.052 68.9177 65.532C67.8604 65.012 67.0457 64.2233 66.4737 63.166C65.919 62.0913 65.6417 60.748 65.6417 59.136C65.6417 57.524 65.9277 56.1893 66.4997 55.132C67.0717 54.0573 67.8864 53.26 68.9437 52.74C70.001 52.22 71.275 51.96 72.7657 51.96C73.7364 51.96 74.629 52.0727 75.4437 52.298C76.2757 52.5233 76.995 52.87 77.6017 53.338C78.2257 53.806 78.7024 54.3953 79.0317 55.106C79.361 55.8167 79.5257 56.666 79.5257 57.654H75.3397C75.3397 57.0647 75.2357 56.5793 75.0277 56.198C74.837 55.8167 74.551 55.5307 74.1697 55.34C73.7884 55.1493 73.3117 55.054 72.7397 55.054C72.081 55.054 71.5437 55.1927 71.1277 55.47C70.729 55.7473 70.4344 56.1547 70.2437 56.692C70.053 57.2293 69.9577 57.8967 69.9577 58.694V59.63C69.9577 60.41 70.053 61.0687 70.2437 61.606C70.4344 62.1433 70.7464 62.5507 71.1797 62.828C71.613 63.088 72.1677 63.218 72.8437 63.218C73.433 63.218 73.9184 63.1313 74.2997 62.958C74.6984 62.7673 75.0017 62.4813 75.2097 62.1C75.4177 61.7013 75.5217 61.2073 75.5217 60.618H79.5257C79.5257 61.5713 79.361 62.412 79.0317 63.14C78.7024 63.8507 78.2344 64.44 77.6277 64.908C77.021 65.376 76.3017 65.7313 75.4697 65.974C74.6377 66.1993 73.7364 66.312 72.7657 66.312ZM82.2116 66V47.176H86.4756V53.78H86.6576C86.9523 53.416 87.3076 53.104 87.7236 52.844C88.1569 52.5667 88.6336 52.3587 89.1536 52.22C89.6736 52.064 90.2109 51.986 90.7656 51.986C91.7536 51.986 92.5856 52.168 93.2616 52.532C93.9549 52.896 94.4836 53.442 94.8476 54.17C95.2116 54.898 95.3936 55.8253 95.3936 56.952V66H91.1296V57.55C91.1296 57.1687 91.0776 56.848 90.9736 56.588C90.8869 56.3107 90.7569 56.0767 90.5836 55.886C90.4103 55.6953 90.1936 55.5567 89.9336 55.47C89.6736 55.3833 89.3789 55.34 89.0496 55.34C88.5469 55.34 88.1049 55.4613 87.7236 55.704C87.3423 55.9293 87.0389 56.2413 86.8136 56.64C86.5883 57.0213 86.4756 57.472 86.4756 57.992V66H82.2116ZM105.193 66.312C103.668 66.312 102.359 66.052 101.267 65.532C100.193 65.012 99.3605 64.2233 98.7712 63.166C98.1992 62.0913 97.9132 60.748 97.9132 59.136C97.9132 57.524 98.1992 56.1893 98.7712 55.132C99.3605 54.0747 100.193 53.286 101.267 52.766C102.359 52.246 103.668 51.986 105.193 51.986C106.736 51.986 108.045 52.246 109.119 52.766C110.211 53.286 111.043 54.0747 111.615 55.132C112.205 56.1893 112.499 57.524 112.499 59.136C112.499 60.748 112.205 62.0913 111.615 63.166C111.043 64.2233 110.211 65.012 109.119 65.532C108.045 66.052 106.736 66.312 105.193 66.312ZM105.193 63.218C105.904 63.218 106.476 63.0793 106.909 62.802C107.36 62.5247 107.681 62.126 107.871 61.606C108.079 61.0687 108.183 60.41 108.183 59.63V58.668C108.183 57.888 108.079 57.2293 107.871 56.692C107.681 56.1547 107.36 55.756 106.909 55.496C106.476 55.2187 105.904 55.08 105.193 55.08C104.5 55.08 103.928 55.2187 103.477 55.496C103.044 55.756 102.723 56.1547 102.515 56.692C102.325 57.2293 102.229 57.888 102.229 58.668V59.63C102.229 60.41 102.325 61.0687 102.515 61.606C102.723 62.126 103.044 62.5247 103.477 62.802C103.928 63.0793 104.5 63.218 105.193 63.218ZM121.697 66.312C120.172 66.312 118.863 66.052 117.771 65.532C116.696 65.012 115.864 64.2233 115.275 63.166C114.703 62.0913 114.417 60.748 114.417 59.136C114.417 57.524 114.703 56.1893 115.275 55.132C115.864 54.0747 116.696 53.286 117.771 52.766C118.863 52.246 120.172 51.986 121.697 51.986C123.24 51.986 124.548 52.246 125.623 52.766C126.715 53.286 127.547 54.0747 128.119 55.132C128.708 56.1893 129.003 57.524 129.003 59.136C129.003 60.748 128.708 62.0913 128.119 63.166C127.547 64.2233 126.715 65.012 125.623 65.532C124.548 66.052 123.24 66.312 121.697 66.312ZM121.697 63.218C122.408 63.218 122.98 63.0793 123.413 62.802C123.864 62.5247 124.184 62.126 124.375 61.606C124.583 61.0687 124.687 60.41 124.687 59.63V58.668C124.687 57.888 124.583 57.2293 124.375 56.692C124.184 56.1547 123.864 55.756 123.413 55.496C122.98 55.2187 122.408 55.08 121.697 55.08C121.004 55.08 120.432 55.2187 119.981 55.496C119.548 55.756 119.227 56.1547 119.019 56.692C118.828 57.2293 118.733 57.888 118.733 58.668V59.63C118.733 60.41 118.828 61.0687 119.019 61.606C119.227 62.126 119.548 62.5247 119.981 62.802C120.432 63.0793 121.004 63.218 121.697 63.218ZM131.571 66V47.176H135.835V66H131.571Z" fill="#201F1F"/>
<g filter="url(#filter0_d_535_166)">
<path d="M69.9951 19.1985C69.9951 21.4077 68.2043 23.1985 65.9951 23.1985C63.786 23.1985 61.9951 21.4077 61.9951 19.1985C61.9951 16.9894 63.786 15.1985 65.9951 15.1985C68.2043 15.1985 69.9951 16.9894 69.9951 19.1985Z" fill="#22C176"/>
<path d="M69.7451 19.1985C69.7451 21.2696 68.0662 22.9485 65.9951 22.9485C63.9241 22.9485 62.2451 21.2696 62.2451 19.1985C62.2451 17.1275 63.9241 15.4485 65.9951 15.4485C68.0662 15.4485 69.7451 17.1275 69.7451 19.1985Z" stroke="#1D1C1C" stroke-width="0.5"/>
</g>
<mask id="path-4-inside-1_535_166" fill="white">
<path fill-rule="evenodd" clip-rule="evenodd" d="M17.5189 8.25751e-05L17.5175 17.5651L25.3301 25.2407L26.3614 26.2706L17.9121 34.5259C17.9633 34.5778 18.0151 34.6292 18.0675 34.6803C22.713 39.2074 30.3861 39.0697 35.206 34.3726C40.0258 29.6755 40.1672 22.1977 35.5217 17.6705C35.0594 17.22 34.5671 16.8156 34.0506 16.4574L17.5189 8.25751e-05Z"/>
</mask>
<path fill-rule="evenodd" clip-rule="evenodd" d="M17.5189 8.25751e-05L17.5175 17.5651L25.3301 25.2407L26.3614 26.2706L17.9121 34.5259C17.9633 34.5778 18.0151 34.6292 18.0675 34.6803C22.713 39.2074 30.3861 39.0697 35.206 34.3726C40.0258 29.6755 40.1672 22.1977 35.5217 17.6705C35.0594 17.22 34.5671 16.8156 34.0506 16.4574L17.5189 8.25751e-05Z" fill="url(#paint0_linear_535_166)"/>
<path d="M17.5175 17.5651L16.5047 17.565L16.5047 17.9716L16.7985 18.2602L17.5175 17.5651ZM17.5189 8.25751e-05L18.2426 -0.690381L16.5063 -2.41895L16.5061 9.15133e-06L17.5189 8.25751e-05ZM25.3301 25.2407L26.055 24.5513L26.0492 24.5456L25.3301 25.2407ZM26.3614 26.2706L27.0785 26.9676L27.7842 26.2782L27.0863 25.5813L26.3614 26.2706ZM17.9121 34.5259L17.195 33.8289L16.4941 34.5137L17.1825 35.2105L17.9121 34.5259ZM34.0506 16.4574L33.3268 17.1479L33.3898 17.2106L33.4633 17.2615L34.0506 16.4574ZM18.5304 17.5652L18.5317 0.000154668L16.5061 9.15133e-06L16.5047 17.565L18.5304 17.5652ZM26.0492 24.5456L18.2366 16.87L16.7985 18.2602L24.611 25.9358L26.0492 24.5456ZM24.6052 25.93L25.6366 26.96L27.0863 25.5813L26.055 24.5513L24.6052 25.93ZM25.6443 25.5736L17.195 33.8289L18.6292 35.223L27.0785 26.9676L25.6443 25.5736ZM17.1825 35.2105C17.2381 35.2668 17.2944 35.3227 17.3513 35.3782L18.7837 33.9823C18.7358 33.9357 18.6885 33.8887 18.6417 33.8414L17.1825 35.2105ZM17.3513 35.3782C22.417 40.3148 30.7319 40.1286 35.9221 35.0705L34.4898 33.6747C30.0404 38.0108 23.009 38.1 18.7837 33.9823L17.3513 35.3782ZM35.9221 35.0705C41.1124 30.0124 41.3035 21.9093 36.2378 16.9726L34.8055 18.3685C39.0308 22.4862 38.9392 29.3385 34.4898 33.6747L35.9221 35.0705ZM36.2378 16.9726C35.7355 16.483 35.2 16.0432 34.6378 15.6533L33.4633 17.2615C33.9341 17.5881 34.3832 17.9569 34.8055 18.3685L36.2378 16.9726ZM16.7951 0.690545L33.3268 17.1479L34.7743 15.7669L18.2426 -0.690381L16.7951 0.690545Z" fill="#071619" mask="url(#path-4-inside-1_535_166)"/>
<path d="M36.5177 19.3412H47L42.3647 14.8853C40.3686 12.9665 37.2461 12.7364 35.2071 14.6046L33.4136 15.9861L36.4449 19.2585L36.5177 19.3412Z" fill="#201F1F"/>
<path d="M10.8032 42.1596L17.8514 42.332L17.6745 35.4633L10.8032 42.1596Z" fill="#33B2F9" stroke="#071619"/>
<defs>
<filter id="filter0_d_535_166" x="59.9951" y="13.1985" width="16" height="16" filterUnits="userSpaceOnUse" color-interpolation-filters="sRGB">
<feFlood flood-opacity="0" result="BackgroundImageFix"/>
<feColorMatrix in="SourceAlpha" type="matrix" values="0 0 0 0 0 0 0 0 0 0 0 0 0 0 0 0 0 0 127 0" result="hardAlpha"/>
<feOffset dx="2" dy="2"/>
<feGaussianBlur stdDeviation="2"/>
<feComposite in2="hardAlpha" operator="out"/>
<feColorMatrix type="matrix" values="0 0 0 0 0.869661 0 0 0 0 0.941667 0 0 0 0 0.825528 0 0 0 0.25 0"/>
<feBlend mode="normal" in2="BackgroundImageFix" result="effect1_dropShadow_535_166"/>
<feBlend mode="normal" in="SourceGraphic" in2="effect1_dropShadow_535_166" result="shape"/>
</filter>
<linearGradient id="paint0_linear_535_166" x1="-12.771" y1="21.4306" x2="39.5798" y2="30.8116" gradientUnits="userSpaceOnUse">
<stop stop-color="#44DAB6"/>
<stop offset="0.656085" stop-color="#2BCF80"/>
<stop offset="0.90004" stop-color="#33B1F9"/>
</linearGradient>
</defs>
</svg>
